<svg xmlns="http://www.w3.org/2000/svg" viewBox="0 0 460 290" width="460" height="290" font-family="-apple-system,BlinkMacSystemFont,'Segoe UI',Helvetica,Arial,sans-serif"><rect width="460" height="290" rx="14" fill="#161b22"/><line x1="18" y1="242" x2="442" y2="242" stroke="#30363d"/><rect x="31.4" y="34.0" width="43.8" height="208.0" rx="3" fill="#2f81f7"><title>Commit: 2,024</title></rect><text x="53.3" y="27.0" text-anchor="middle" font-size="11" font-family="monospace" fill="#e6edf3">2,024</text><text x="53.3" y="261" text-anchor="middle" font-size="11" fill="#7d8590">Commit</text><rect x="102.1" y="82.8" width="43.8" height="159.2" rx="3" fill="#2f81f7"><title>PullReq: 339</title></rect><text x="124.0" y="75.8" text-anchor="middle" font-size="11" font-family="monospace" fill="#e6edf3">339</text><text x="124.0" y="261" text-anchor="middle" font-size="11" fill="#7d8590">PullReq</text><rect x="172.8" y="156.3" width="43.8" height="85.7" rx="3" fill="#2f81f7"><title>Issue: 22</title></rect><text x="194.7" y="149.3" text-anchor="middle" font-size="11" font-family="monospace" fill="#e6edf3">22</text><text x="194.7" y="261" text-anchor="middle" font-size="11" fill="#7d8590">Issue</text><rect x="243.4" y="82.7" width="43.8" height="159.3" rx="3" fill="#2f81f7"><title>Involved: 340</title></rect><text x="265.3" y="75.7" text-anchor="middle" font-size="11" font-family="monospace" fill="#e6edf3">340</text><text x="265.3" y="261" text-anchor="middle" font-size="11" fill="#7d8590">Involved</text><rect x="314.1" y="212.0" width="43.8" height="30.0" rx="3" fill="#2f81f7"><title>Review: 2</title></rect><text x="336.0" y="205.0" text-anchor="middle" font-size="11" font-family="monospace" fill="#e6edf3">2</text><text x="336.0" y="261" text-anchor="middle" font-size="11" fill="#7d8590">Review</text><rect x="384.8" y="160.2" width="43.8" height="81.8" rx="3" fill="#2f81f7"><title>Repo: 19</title></rect><text x="406.7" y="153.2" text-anchor="middle" font-size="11" font-family="monospace" fill="#e6edf3">19</text><text x="406.7" y="261" text-anchor="middle" font-size="11" fill="#7d8590">Repo</text></svg>