<svg xmlns="http://www.w3.org/2000/svg" viewBox="0 0 460 290" width="460" height="290" font-family="-apple-system,BlinkMacSystemFont,'Segoe UI',Helvetica,Arial,sans-serif"><rect width="460" height="290" rx="14" fill="#161b22"/><path d="M132.00 41.00 A104 104 0 1 1 30.01 165.37 L77.08 155.97 A56 56 0 1 0 132.00 89.00 Z" fill="rgba(47,129,247,0.95)"><title>Commit: 2,056 (72%)</title></path><path d="M30.01 165.37 A104 104 0 0 1 48.42 83.11 L87.00 111.67 A56 56 0 0 0 77.08 155.97 Z" fill="rgba(47,129,247,0.826)"><title>PullReq: 380 (13%)</title></path><path d="M48.42 83.11 A104 104 0 0 1 51.51 79.14 L88.66 109.54 A56 56 0 0 0 87.00 111.67 Z" fill="rgba(47,129,247,0.702)"><title>Issue: 22 (1%)</title></path><path d="M51.51 79.14 A104 104 0 0 1 126.98 41.12 L129.30 89.07 A56 56 0 0 0 88.66 109.54 Z" fill="rgba(47,129,247,0.578)"><title>Involved: 381 (13%)</title></path><path d="M126.98 41.12 A104 104 0 0 1 127.43 41.10 L129.54 89.05 A56 56 0 0 0 129.30 89.07 Z" fill="rgba(47,129,247,0.45399999999999996)"><title>Review: 2 (0%)</title></path><path d="M127.43 41.10 A104 104 0 0 1 132.00 41.00 L132.00 89.00 A56 56 0 0 0 129.54 89.05 Z" fill="rgba(47,129,247,0.32999999999999996)"><title>Repo: 20 (1%)</title></path><rect x="272" y="21" width="11" height="11" rx="2.5" fill="rgba(47,129,247,0.95)"/><text x="290" y="30" font-size="12" fill="#e6edf3">Commit</text><text x="444" y="30" text-anchor="end" font-size="11" font-family="monospace" fill="#7d8590">72%</text><rect x="272" y="49" width="11" height="11" rx="2.5" fill="rgba(47,129,247,0.826)"/><text x="290" y="58" font-size="12" fill="#e6edf3">PullReq</text><text x="444" y="58" text-anchor="end" font-size="11" font-family="monospace" fill="#7d8590">13%</text><rect x="272" y="77" width="11" height="11" rx="2.5" fill="rgba(47,129,247,0.702)"/><text x="290" y="86" font-size="12" fill="#e6edf3">Issue</text><text x="444" y="86" text-anchor="end" font-size="11" font-family="monospace" fill="#7d8590">1%</text><rect x="272" y="105" width="11" height="11" rx="2.5" fill="rgba(47,129,247,0.578)"/><text x="290" y="114" font-size="12" fill="#e6edf3">Involved</text><text x="444" y="114" text-anchor="end" font-size="11" font-family="monospace" fill="#7d8590">13%</text><rect x="272" y="133" width="11" height="11" rx="2.5" fill="rgba(47,129,247,0.45399999999999996)"/><text x="290" y="142" font-size="12" fill="#e6edf3">Review</text><text x="444" y="142" text-anchor="end" font-size="11" font-family="monospace" fill="#7d8590">0%</text><rect x="272" y="161" width="11" height="11" rx="2.5" fill="rgba(47,129,247,0.32999999999999996)"/><text x="290" y="170" font-size="12" fill="#e6edf3">Repo</text><text x="444" y="170" text-anchor="end" font-size="11" font-family="monospace" fill="#7d8590">1%</text></svg>