<svg xmlns="http://www.w3.org/2000/svg" viewBox="0 0 460 290" width="460" height="290" font-family="-apple-system,BlinkMacSystemFont,'Segoe UI',Helvetica,Arial,sans-serif"><rect width="460" height="290" rx="14" fill="#161b22"/><path d="M132.00 41.00 A104 104 0 1 1 30.74 121.27 L77.48 132.22 A56 56 0 1 0 132.00 89.00 Z" fill="rgba(47,129,247,0.95)"><title>Commit: 1,954 (79%)</title></path><path d="M30.74 121.27 A104 104 0 0 1 62.96 67.22 L94.82 103.12 A56 56 0 0 0 77.48 132.22 Z" fill="rgba(47,129,247,0.826)"><title>PullReq: 243 (10%)</title></path><path d="M62.96 67.22 A104 104 0 0 1 67.39 63.50 L97.21 101.12 A56 56 0 0 0 94.82 103.12 Z" fill="rgba(47,129,247,0.702)"><title>Issue: 22 (1%)</title></path><path d="M67.39 63.50 A104 104 0 0 1 126.48 41.15 L129.03 89.08 A56 56 0 0 0 97.21 101.12 Z" fill="rgba(47,129,247,0.578)"><title>Involved: 244 (10%)</title></path><path d="M126.48 41.15 A104 104 0 0 1 127.00 41.12 L129.31 89.06 A56 56 0 0 0 129.03 89.08 Z" fill="rgba(47,129,247,0.45399999999999996)"><title>Review: 2 (0%)</title></path><path d="M127.00 41.12 A104 104 0 0 1 132.00 41.00 L132.00 89.00 A56 56 0 0 0 129.31 89.06 Z" fill="rgba(47,129,247,0.32999999999999996)"><title>Repo: 19 (1%)</title></path><rect x="272" y="21" width="11" height="11" rx="2.5" fill="rgba(47,129,247,0.95)"/><text x="290" y="30" font-size="12" fill="#e6edf3">Commit</text><text x="444" y="30" text-anchor="end" font-size="11" font-family="monospace" fill="#7d8590">79%</text><rect x="272" y="49" width="11" height="11" rx="2.5" fill="rgba(47,129,247,0.826)"/><text x="290" y="58" font-size="12" fill="#e6edf3">PullReq</text><text x="444" y="58" text-anchor="end" font-size="11" font-family="monospace" fill="#7d8590">10%</text><rect x="272" y="77" width="11" height="11" rx="2.5" fill="rgba(47,129,247,0.702)"/><text x="290" y="86" font-size="12" fill="#e6edf3">Issue</text><text x="444" y="86" text-anchor="end" font-size="11" font-family="monospace" fill="#7d8590">1%</text><rect x="272" y="105" width="11" height="11" rx="2.5" fill="rgba(47,129,247,0.578)"/><text x="290" y="114" font-size="12" fill="#e6edf3">Involved</text><text x="444" y="114" text-anchor="end" font-size="11" font-family="monospace" fill="#7d8590">10%</text><rect x="272" y="133" width="11" height="11" rx="2.5" fill="rgba(47,129,247,0.45399999999999996)"/><text x="290" y="142" font-size="12" fill="#e6edf3">Review</text><text x="444" y="142" text-anchor="end" font-size="11" font-family="monospace" fill="#7d8590">0%</text><rect x="272" y="161" width="11" height="11" rx="2.5" fill="rgba(47,129,247,0.32999999999999996)"/><text x="290" y="170" font-size="12" fill="#e6edf3">Repo</text><text x="444" y="170" text-anchor="end" font-size="11" font-family="monospace" fill="#7d8590">1%</text></svg>