<svg xmlns="http://www.w3.org/2000/svg" viewBox="0 0 460 290" width="460" height="290" font-family="-apple-system,BlinkMacSystemFont,'Segoe UI',Helvetica,Arial,sans-serif"><rect width="460" height="290" rx="14" fill="#161b22"/><path d="M132.00 41.00 A104 104 0 1 1 30.83 169.11 L77.53 157.98 A56 56 0 1 0 132.00 89.00 Z" fill="rgba(47,129,247,0.95)"><title>Commit: 2,072 (71%)</title></path><path d="M30.83 169.11 A104 104 0 0 1 47.34 84.59 L86.42 112.47 A56 56 0 0 0 77.53 157.98 Z" fill="rgba(47,129,247,0.826)"><title>PullReq: 395 (14%)</title></path><path d="M47.34 84.59 A104 104 0 0 1 50.31 80.64 L88.01 110.34 A56 56 0 0 0 86.42 112.47 Z" fill="rgba(47,129,247,0.702)"><title>Issue: 22 (1%)</title></path><path d="M50.31 80.64 A104 104 0 0 1 127.06 41.12 L129.34 89.06 A56 56 0 0 0 88.01 110.34 Z" fill="rgba(47,129,247,0.578)"><title>Involved: 396 (14%)</title></path><path d="M127.06 41.12 A104 104 0 0 1 127.51 41.10 L129.58 89.05 A56 56 0 0 0 129.34 89.06 Z" fill="rgba(47,129,247,0.45399999999999996)"><title>Review: 2 (0%)</title></path><path d="M127.51 41.10 A104 104 0 0 1 132.00 41.00 L132.00 89.00 A56 56 0 0 0 129.58 89.05 Z" fill="rgba(47,129,247,0.32999999999999996)"><title>Repo: 20 (1%)</title></path><rect x="272" y="21" width="11" height="11" rx="2.5" fill="rgba(47,129,247,0.95)"/><text x="290" y="30" font-size="12" fill="#e6edf3">Commit</text><text x="444" y="30" text-anchor="end" font-size="11" font-family="monospace" fill="#7d8590">71%</text><rect x="272" y="49" width="11" height="11" rx="2.5" fill="rgba(47,129,247,0.826)"/><text x="290" y="58" font-size="12" fill="#e6edf3">PullReq</text><text x="444" y="58" text-anchor="end" font-size="11" font-family="monospace" fill="#7d8590">14%</text><rect x="272" y="77" width="11" height="11" rx="2.5" fill="rgba(47,129,247,0.702)"/><text x="290" y="86" font-size="12" fill="#e6edf3">Issue</text><text x="444" y="86" text-anchor="end" font-size="11" font-family="monospace" fill="#7d8590">1%</text><rect x="272" y="105" width="11" height="11" rx="2.5" fill="rgba(47,129,247,0.578)"/><text x="290" y="114" font-size="12" fill="#e6edf3">Involved</text><text x="444" y="114" text-anchor="end" font-size="11" font-family="monospace" fill="#7d8590">14%</text><rect x="272" y="133" width="11" height="11" rx="2.5" fill="rgba(47,129,247,0.45399999999999996)"/><text x="290" y="142" font-size="12" fill="#e6edf3">Review</text><text x="444" y="142" text-anchor="end" font-size="11" font-family="monospace" fill="#7d8590">0%</text><rect x="272" y="161" width="11" height="11" rx="2.5" fill="rgba(47,129,247,0.32999999999999996)"/><text x="290" y="170" font-size="12" fill="#e6edf3">Repo</text><text x="444" y="170" text-anchor="end" font-size="11" font-family="monospace" fill="#7d8590">1%</text></svg>