<svg xmlns="http://www.w3.org/2000/svg" viewBox="0 0 460 290" width="460" height="290" font-family="-apple-system,BlinkMacSystemFont,'Segoe UI',Helvetica,Arial,sans-serif"><rect width="460" height="290" rx="14" fill="#161b22"/><path d="M132.00 41.00 A104 104 0 1 1 41.20 94.29 L83.11 117.69 A56 56 0 1 0 132.00 89.00 Z" fill="rgba(47,129,247,0.95)"><title>Commit: 1,953 (83%)</title></path><path d="M41.20 94.29 A104 104 0 0 1 74.52 58.32 L101.05 98.33 A56 56 0 0 0 83.11 117.69 Z" fill="rgba(47,129,247,0.826)"><title>PullReq: 178 (8%)</title></path><path d="M74.52 58.32 A104 104 0 0 1 80.20 54.82 L104.11 96.44 A56 56 0 0 0 101.05 98.33 Z" fill="rgba(47,129,247,0.702)"><title>Issue: 24 (1%)</title></path><path d="M80.20 54.82 A104 104 0 0 1 127.55 41.10 L129.61 89.05 A56 56 0 0 0 104.11 96.44 Z" fill="rgba(47,129,247,0.578)"><title>Involved: 179 (8%)</title></path><path d="M127.55 41.10 A104 104 0 0 1 128.11 41.07 L129.90 89.04 A56 56 0 0 0 129.61 89.05 Z" fill="rgba(47,129,247,0.45399999999999996)"><title>Review: 2 (0%)</title></path><path d="M128.11 41.07 A104 104 0 0 1 132.00 41.00 L132.00 89.00 A56 56 0 0 0 129.90 89.04 Z" fill="rgba(47,129,247,0.32999999999999996)"><title>Repo: 14 (1%)</title></path><rect x="272" y="21" width="11" height="11" rx="2.5" fill="rgba(47,129,247,0.95)"/><text x="290" y="30" font-size="12" fill="#e6edf3">Commit</text><text x="444" y="30" text-anchor="end" font-size="11" font-family="monospace" fill="#7d8590">83%</text><rect x="272" y="49" width="11" height="11" rx="2.5" fill="rgba(47,129,247,0.826)"/><text x="290" y="58" font-size="12" fill="#e6edf3">PullReq</text><text x="444" y="58" text-anchor="end" font-size="11" font-family="monospace" fill="#7d8590">8%</text><rect x="272" y="77" width="11" height="11" rx="2.5" fill="rgba(47,129,247,0.702)"/><text x="290" y="86" font-size="12" fill="#e6edf3">Issue</text><text x="444" y="86" text-anchor="end" font-size="11" font-family="monospace" fill="#7d8590">1%</text><rect x="272" y="105" width="11" height="11" rx="2.5" fill="rgba(47,129,247,0.578)"/><text x="290" y="114" font-size="12" fill="#e6edf3">Involved</text><text x="444" y="114" text-anchor="end" font-size="11" font-family="monospace" fill="#7d8590">8%</text><rect x="272" y="133" width="11" height="11" rx="2.5" fill="rgba(47,129,247,0.45399999999999996)"/><text x="290" y="142" font-size="12" fill="#e6edf3">Review</text><text x="444" y="142" text-anchor="end" font-size="11" font-family="monospace" fill="#7d8590">0%</text><rect x="272" y="161" width="11" height="11" rx="2.5" fill="rgba(47,129,247,0.32999999999999996)"/><text x="290" y="170" font-size="12" fill="#e6edf3">Repo</text><text x="444" y="170" text-anchor="end" font-size="11" font-family="monospace" fill="#7d8590">1%</text></svg>