<svg xmlns="http://www.w3.org/2000/svg" viewBox="0 0 460 290" width="460" height="290" font-family="-apple-system,BlinkMacSystemFont,'Segoe UI',Helvetica,Arial,sans-serif"><rect width="460" height="290" rx="14" fill="#161b22"/><path d="M132.00 41.00 A104 104 0 0 1 163.51 244.11 L148.97 198.37 A56 56 0 0 0 132.00 89.00 Z" fill="rgba(47,129,247,0.95)"><title>Commit: 336 (45%)</title></path><path d="M163.51 244.11 A104 104 0 0 1 33.79 179.22 L79.12 163.42 A56 56 0 0 0 148.97 198.37 Z" fill="rgba(47,129,247,0.826)"><title>PullReq: 183 (25%)</title></path><path d="M33.79 179.22 A104 104 0 0 1 29.16 160.51 L76.63 153.35 A56 56 0 0 0 79.12 163.42 Z" fill="rgba(47,129,247,0.702)"><title>Issue: 22 (3%)</title></path><path d="M29.16 160.51 A104 104 0 0 1 114.54 42.48 L122.60 89.79 A56 56 0 0 0 76.63 153.35 Z" fill="rgba(47,129,247,0.578)"><title>Involved: 184 (25%)</title></path><path d="M114.54 42.48 A104 104 0 0 1 116.27 42.20 L123.53 89.64 A56 56 0 0 0 122.60 89.79 Z" fill="rgba(47,129,247,0.45399999999999996)"><title>Review: 2 (0%)</title></path><path d="M116.27 42.20 A104 104 0 0 1 132.00 41.00 L132.00 89.00 A56 56 0 0 0 123.53 89.64 Z" fill="rgba(47,129,247,0.32999999999999996)"><title>Repo: 18 (2%)</title></path><rect x="272" y="21" width="11" height="11" rx="2.5" fill="rgba(47,129,247,0.95)"/><text x="290" y="30" font-size="12" fill="#e6edf3">Commit</text><text x="444" y="30" text-anchor="end" font-size="11" font-family="monospace" fill="#7d8590">45%</text><rect x="272" y="49" width="11" height="11" rx="2.5" fill="rgba(47,129,247,0.826)"/><text x="290" y="58" font-size="12" fill="#e6edf3">PullReq</text><text x="444" y="58" text-anchor="end" font-size="11" font-family="monospace" fill="#7d8590">25%</text><rect x="272" y="77" width="11" height="11" rx="2.5" fill="rgba(47,129,247,0.702)"/><text x="290" y="86" font-size="12" fill="#e6edf3">Issue</text><text x="444" y="86" text-anchor="end" font-size="11" font-family="monospace" fill="#7d8590">3%</text><rect x="272" y="105" width="11" height="11" rx="2.5" fill="rgba(47,129,247,0.578)"/><text x="290" y="114" font-size="12" fill="#e6edf3">Involved</text><text x="444" y="114" text-anchor="end" font-size="11" font-family="monospace" fill="#7d8590">25%</text><rect x="272" y="133" width="11" height="11" rx="2.5" fill="rgba(47,129,247,0.45399999999999996)"/><text x="290" y="142" font-size="12" fill="#e6edf3">Review</text><text x="444" y="142" text-anchor="end" font-size="11" font-family="monospace" fill="#7d8590">0%</text><rect x="272" y="161" width="11" height="11" rx="2.5" fill="rgba(47,129,247,0.32999999999999996)"/><text x="290" y="170" font-size="12" fill="#e6edf3">Repo</text><text x="444" y="170" text-anchor="end" font-size="11" font-family="monospace" fill="#7d8590">2%</text></svg>