<svg xmlns="http://www.w3.org/2000/svg" viewBox="0 0 460 420" width="460" height="420" font-family="-apple-system,BlinkMacSystemFont,'Segoe UI',Helvetica,Arial,sans-serif"><rect width="460" height="420" rx="14" fill="#161b22"/><polygon points="230,189 252.5,202 252.5,228 230,241 207.5,228 207.5,202" fill="none" stroke="#30363d" stroke-width="1" stroke-dasharray="3 3"/><polygon points="230,163 275,189 275,241 230,267 185,241 185,189" fill="none" stroke="#30363d" stroke-width="1" stroke-dasharray="3 3"/><polygon points="230,137 297.5,176 297.5,254 230,293 162.5,254 162.5,176" fill="none" stroke="#30363d" stroke-width="1" stroke-dasharray="3 3"/><polygon points="230,111 320.1,163 320.1,267 230,319 139.9,267 139.9,163" fill="none" stroke="#30363d" stroke-width="1" stroke-dasharray="3 3"/><polygon points="230,85 342.6,150 342.6,280 230,345 117.4,280 117.4,150" fill="none" stroke="#30363d" stroke-width="1" stroke-dasharray="3 3"/><line x1="230" y1="215" x2="230" y2="85" stroke="#30363d" stroke-width="1" stroke-dasharray="3 3"/><line x1="230" y1="215" x2="342.6" y2="150" stroke="#30363d" stroke-width="1" stroke-dasharray="3 3"/><line x1="230" y1="215" x2="342.6" y2="280" stroke="#30363d" stroke-width="1" stroke-dasharray="3 3"/><line x1="230" y1="215" x2="230" y2="345" stroke="#30363d" stroke-width="1" stroke-dasharray="3 3"/><line x1="230" y1="215" x2="117.4" y2="280" stroke="#30363d" stroke-width="1" stroke-dasharray="3 3"/><line x1="230" y1="215" x2="117.4" y2="150" stroke="#30363d" stroke-width="1" stroke-dasharray="3 3"/><text x="236" y="192.0" font-size="9" font-family="monospace" fill="#7d8590">1</text><text x="236" y="166.0" font-size="9" font-family="monospace" fill="#7d8590">10</text><text x="236" y="140.0" font-size="9" font-family="monospace" fill="#7d8590">100</text><text x="236" y="114.0" font-size="9" font-family="monospace" fill="#7d8590">1K</text><text x="236" y="88.0" font-size="9" font-family="monospace" fill="#7d8590">10K</text><text x="230.0" y="67.0" text-anchor="middle" font-size="13" fill="#e6edf3">Commit</text><text x="361.6" y="143.0" text-anchor="start" font-size="13" fill="#e6edf3">PullReq</text><text x="361.6" y="295.0" text-anchor="start" font-size="13" fill="#e6edf3">Issue</text><text x="230.0" y="371.0" text-anchor="middle" font-size="13" fill="#e6edf3">Involved</text><text x="98.4" y="295.0" text-anchor="end" font-size="13" fill="#e6edf3">Review</text><text x="98.4" y="143.0" text-anchor="end" font-size="13" fill="#e6edf3">Repo</text><polygon points="230,103 310,168.8 282.7,245.5 230,307.4 200.7,231.9 178.2,185.1" fill="rgba(47,129,247,0.38)" stroke="#2f81f7" stroke-width="2.5" stroke-linejoin="round"/><circle cx="230" cy="103" r="3.4" fill="#2f81f7" stroke="#161b22" stroke-width="1.5"><title>Commit: 2,035</title></circle><circle cx="310" cy="168.8" r="3.4" fill="#2f81f7" stroke="#161b22" stroke-width="1.5"><title>PullReq: 357</title></circle><circle cx="282.7" cy="245.5" r="3.4" fill="#2f81f7" stroke="#161b22" stroke-width="1.5"><title>Issue: 22</title></circle><circle cx="230" cy="307.4" r="3.4" fill="#2f81f7" stroke="#161b22" stroke-width="1.5"><title>Involved: 358</title></circle><circle cx="200.7" cy="231.9" r="3.4" fill="#2f81f7" stroke="#161b22" stroke-width="1.5"><title>Review: 2</title></circle><circle cx="178.2" cy="185.1" r="3.4" fill="#2f81f7" stroke="#161b22" stroke-width="1.5"><title>Repo: 20</title></circle></svg>