<svg xmlns="http://www.w3.org/2000/svg" viewBox="0 0 460 290" width="460" height="290" font-family="-apple-system,BlinkMacSystemFont,'Segoe UI',Helvetica,Arial,sans-serif"><rect width="460" height="290" rx="14" fill="#161b22"/><line x1="34" y1="246" x2="426" y2="246" stroke="#30363d"/><path d="M34.0 246 L34.0 26.0L112.4 71.0L190.8 152.3L269.2 70.8L347.6 214.0L426.0 157.4 L426.0 246 Z" fill="rgba(47,129,247,0.3)"/><path d="M34.0 26.0L112.4 71.0L190.8 152.3L269.2 70.8L347.6 214.0L426.0 157.4" fill="none" stroke="#2f81f7" stroke-width="2.5" stroke-linejoin="round"/><circle cx="34.0" cy="26.0" r="3.6" fill="#2f81f7" stroke="#161b22" stroke-width="1.5"><title>Commit: 1,918</title></circle><circle cx="112.4" cy="71.0" r="3.6" fill="#2f81f7" stroke="#161b22" stroke-width="1.5"><title>PullReq: 408</title></circle><circle cx="190.8" cy="152.3" r="3.6" fill="#2f81f7" stroke="#161b22" stroke-width="1.5"><title>Issue: 24</title></circle><circle cx="269.2" cy="70.8" r="3.6" fill="#2f81f7" stroke="#161b22" stroke-width="1.5"><title>Involved: 411</title></circle><circle cx="347.6" cy="214.0" r="3.6" fill="#2f81f7" stroke="#161b22" stroke-width="1.5"><title>Review: 2</title></circle><circle cx="426.0" cy="157.4" r="3.6" fill="#2f81f7" stroke="#161b22" stroke-width="1.5"><title>Repo: 20</title></circle><text x="34.0" y="265" text-anchor="middle" font-size="11" fill="#7d8590">Commit</text><text x="112.4" y="265" text-anchor="middle" font-size="11" fill="#7d8590">PullReq</text><text x="190.8" y="265" text-anchor="middle" font-size="11" fill="#7d8590">Issue</text><text x="269.2" y="265" text-anchor="middle" font-size="11" fill="#7d8590">Involved</text><text x="347.6" y="265" text-anchor="middle" font-size="11" fill="#7d8590">Review</text><text x="426.0" y="265" text-anchor="middle" font-size="11" fill="#7d8590">Repo</text></svg>