<svg xmlns="http://www.w3.org/2000/svg" viewBox="0 0 460 208" width="460" height="208" font-family="-apple-system,BlinkMacSystemFont,'Segoe UI',Helvetica,Arial,sans-serif"><rect width="460" height="208" rx="14" fill="#161b22"/><text x="112" y="33" text-anchor="end" font-size="12" fill="#e6edf3">Commit</text><rect x="124" y="23" width="262" height="12" rx="6" fill="rgba(255,255,255,0.06)"/><rect x="124" y="23" width="262.0" height="12" rx="6" fill="#2f81f7"><title>Commit: 2,059</title></rect><text x="396" y="33" font-size="11" font-family="monospace" fill="#7d8590">2,059</text><text x="112" y="63" text-anchor="end" font-size="12" fill="#e6edf3">PullReq</text><rect x="124" y="53" width="262" height="12" rx="6" fill="rgba(255,255,255,0.06)"/><rect x="124" y="53" width="204.3" height="12" rx="6" fill="#2f81f7"><title>PullReq: 383</title></rect><text x="396" y="63" font-size="11" font-family="monospace" fill="#7d8590">383</text><text x="112" y="93" text-anchor="end" font-size="12" fill="#e6edf3">Issue</text><rect x="124" y="83" width="262" height="12" rx="6" fill="rgba(255,255,255,0.06)"/><rect x="124" y="83" width="107.7" height="12" rx="6" fill="#2f81f7"><title>Issue: 22</title></rect><text x="396" y="93" font-size="11" font-family="monospace" fill="#7d8590">22</text><text x="112" y="123" text-anchor="end" font-size="12" fill="#e6edf3">Involved</text><rect x="124" y="113" width="262" height="12" rx="6" fill="rgba(255,255,255,0.06)"/><rect x="124" y="113" width="204.4" height="12" rx="6" fill="#2f81f7"><title>Involved: 384</title></rect><text x="396" y="123" font-size="11" font-family="monospace" fill="#7d8590">384</text><text x="112" y="153" text-anchor="end" font-size="12" fill="#e6edf3">Review</text><rect x="124" y="143" width="262" height="12" rx="6" fill="rgba(255,255,255,0.06)"/><rect x="124" y="143" width="37.7" height="12" rx="6" fill="#2f81f7"><title>Review: 2</title></rect><text x="396" y="153" font-size="11" font-family="monospace" fill="#7d8590">2</text><text x="112" y="183" text-anchor="end" font-size="12" fill="#e6edf3">Repo</text><rect x="124" y="173" width="262" height="12" rx="6" fill="rgba(255,255,255,0.06)"/><rect x="124" y="173" width="104.5" height="12" rx="6" fill="#2f81f7"><title>Repo: 20</title></rect><text x="396" y="183" font-size="11" font-family="monospace" fill="#7d8590">20</text></svg>