<svg xmlns="http://www.w3.org/2000/svg" viewBox="0 0 460 290" width="460" height="290" font-family="-apple-system,BlinkMacSystemFont,'Segoe UI',Helvetica,Arial,sans-serif"><rect width="460" height="290" rx="14" fill="#161b22"/><line x1="18" y1="242" x2="442" y2="242" stroke="#30363d"/><rect x="31.4" y="34.0" width="43.8" height="208.0" rx="3" fill="#2f81f7"><title>Commit: 1,939</title></rect><text x="53.3" y="27.0" text-anchor="middle" font-size="11" font-family="monospace" fill="#e6edf3">1,939</text><text x="53.3" y="261" text-anchor="middle" font-size="11" fill="#7d8590">Commit</text><rect x="102.1" y="92.9" width="43.8" height="149.1" rx="3" fill="#2f81f7"><title>PullReq: 226</title></rect><text x="124.0" y="85.9" text-anchor="middle" font-size="11" font-family="monospace" fill="#e6edf3">226</text><text x="124.0" y="261" text-anchor="middle" font-size="11" fill="#7d8590">PullReq</text><rect x="172.8" y="155.9" width="43.8" height="86.1" rx="3" fill="#2f81f7"><title>Issue: 22</title></rect><text x="194.7" y="148.9" text-anchor="middle" font-size="11" font-family="monospace" fill="#e6edf3">22</text><text x="194.7" y="261" text-anchor="middle" font-size="11" fill="#7d8590">Issue</text><rect x="243.4" y="92.8" width="43.8" height="149.2" rx="3" fill="#2f81f7"><title>Involved: 227</title></rect><text x="265.3" y="85.8" text-anchor="middle" font-size="11" font-family="monospace" fill="#e6edf3">227</text><text x="265.3" y="261" text-anchor="middle" font-size="11" fill="#7d8590">Involved</text><rect x="314.1" y="211.8" width="43.8" height="30.2" rx="3" fill="#2f81f7"><title>Review: 2</title></rect><text x="336.0" y="204.8" text-anchor="middle" font-size="11" font-family="monospace" fill="#e6edf3">2</text><text x="336.0" y="261" text-anchor="middle" font-size="11" fill="#7d8590">Review</text><rect x="384.8" y="159.7" width="43.8" height="82.3" rx="3" fill="#2f81f7"><title>Repo: 19</title></rect><text x="406.7" y="152.7" text-anchor="middle" font-size="11" font-family="monospace" fill="#e6edf3">19</text><text x="406.7" y="261" text-anchor="middle" font-size="11" fill="#7d8590">Repo</text></svg>