<svg xmlns="http://www.w3.org/2000/svg" viewBox="0 0 460 290" width="460" height="290" font-family="-apple-system,BlinkMacSystemFont,'Segoe UI',Helvetica,Arial,sans-serif"><rect width="460" height="290" rx="14" fill="#161b22"/><line x1="18" y1="242" x2="442" y2="242" stroke="#30363d"/><rect x="31.4" y="34.0" width="43.8" height="208.0" rx="3" fill="#b07219"><title>Java: 88.5%</title></rect><text x="53.3" y="27.0" text-anchor="middle" font-size="11" font-family="monospace" fill="#e6edf3">88.5%</text><text x="53.3" y="261" text-anchor="middle" font-size="11" fill="#7d8590">Java</text><rect x="102.1" y="233.7" width="43.8" height="8.3" rx="3" fill="#f1e05a"><title>JavaScript: 3.6%</title></rect><text x="124.0" y="226.7" text-anchor="middle" font-size="11" font-family="monospace" fill="#e6edf3">3.6%</text><text x="124.0" y="261" text-anchor="middle" font-size="11" fill="#7d8590">JavaScript</text><rect x="172.8" y="236.6" width="43.8" height="5.4" rx="3" fill="#292929"><title>JSON: 2.3%</title></rect><text x="194.7" y="229.6" text-anchor="middle" font-size="11" font-family="monospace" fill="#e6edf3">2.3%</text><text x="194.7" y="261" text-anchor="middle" font-size="11" fill="#7d8590">JSON</text><rect x="243.4" y="238.2" width="43.8" height="3.8" rx="3" fill="#E22837"><title>mcfunction: 1.6%</title></rect><text x="265.3" y="231.2" text-anchor="middle" font-size="11" font-family="monospace" fill="#e6edf3">1.6%</text><text x="265.3" y="261" text-anchor="middle" font-size="11" fill="#7d8590">mcfunction</text><rect x="314.1" y="239.0" width="43.8" height="3.0" rx="3" fill="#083fa1"><title>Markdown: 1.1%</title></rect><text x="336.0" y="232.0" text-anchor="middle" font-size="11" font-family="monospace" fill="#e6edf3">1.1%</text><text x="336.0" y="261" text-anchor="middle" font-size="11" fill="#7d8590">Markdown</text><rect x="384.8" y="235.2" width="43.8" height="6.8" rx="3" fill="#8b949e"><title>Other: 2.9%</title></rect><text x="406.7" y="228.2" text-anchor="middle" font-size="11" font-family="monospace" fill="#e6edf3">2.9%</text><text x="406.7" y="261" text-anchor="middle" font-size="11" fill="#7d8590">Other</text></svg>