<svg xmlns="http://www.w3.org/2000/svg" viewBox="0 0 460 290" width="460" height="290" font-family="-apple-system,BlinkMacSystemFont,'Segoe UI',Helvetica,Arial,sans-serif"><rect width="460" height="290" rx="14" fill="#161b22"/><path d="M132.00 41.00 A104 104 0 1 1 36.18 104.58 L80.40 123.23 A56 56 0 1 0 132.00 89.00 Z" fill="#b07219"><title>Java: 81.4% (81%)</title></path><path d="M36.18 104.58 A104 104 0 0 1 77.59 56.37 L102.70 97.28 A56 56 0 0 0 80.40 123.23 Z" fill="#f1e05a"><title>JavaScript: 9.9% (10%)</title></path><path d="M77.59 56.37 A104 104 0 0 1 89.60 50.04 L109.17 93.87 A56 56 0 0 0 102.70 97.28 Z" fill="#292929"><title>JSON: 2.1% (2%)</title></path><path d="M89.60 50.04 A104 104 0 0 1 99.50 46.21 L114.50 91.80 A56 56 0 0 0 109.17 93.87 Z" fill="#563d7c"><title>CSS: 1.6% (2%)</title></path><path d="M99.50 46.21 A104 104 0 0 1 108.27 43.74 L119.22 90.48 A56 56 0 0 0 114.50 91.80 Z" fill="#E22837"><title>mcfunction: 1.4% (1%)</title></path><path d="M108.27 43.74 A104 104 0 0 1 116.38 42.18 L123.59 89.64 A56 56 0 0 0 119.22 90.48 Z" fill="#083fa1"><title>Markdown: 1.3% (1%)</title></path><path d="M116.38 42.18 A104 104 0 0 1 132.00 41.00 L132.00 89.00 A56 56 0 0 0 123.59 89.64 Z" fill="#8b949e"><title>Other: 2.4% (2%)</title></path><rect x="272" y="21" width="11" height="11" rx="2.5" fill="#b07219"/><text x="290" y="30" font-size="12" fill="#e6edf3">Java</text><text x="444" y="30" text-anchor="end" font-size="11" font-family="monospace" fill="#7d8590">81%</text><rect x="272" y="49" width="11" height="11" rx="2.5" fill="#f1e05a"/><text x="290" y="58" font-size="12" fill="#e6edf3">JavaScript</text><text x="444" y="58" text-anchor="end" font-size="11" font-family="monospace" fill="#7d8590">10%</text><rect x="272" y="77" width="11" height="11" rx="2.5" fill="#292929"/><text x="290" y="86" font-size="12" fill="#e6edf3">JSON</text><text x="444" y="86" text-anchor="end" font-size="11" font-family="monospace" fill="#7d8590">2%</text><rect x="272" y="105" width="11" height="11" rx="2.5" fill="#563d7c"/><text x="290" y="114" font-size="12" fill="#e6edf3">CSS</text><text x="444" y="114" text-anchor="end" font-size="11" font-family="monospace" fill="#7d8590">2%</text><rect x="272" y="133" width="11" height="11" rx="2.5" fill="#E22837"/><text x="290" y="142" font-size="12" fill="#e6edf3">mcfunction</text><text x="444" y="142" text-anchor="end" font-size="11" font-family="monospace" fill="#7d8590">1%</text><rect x="272" y="161" width="11" height="11" rx="2.5" fill="#083fa1"/><text x="290" y="170" font-size="12" fill="#e6edf3">Markdown</text><text x="444" y="170" text-anchor="end" font-size="11" font-family="monospace" fill="#7d8590">1%</text><rect x="272" y="189" width="11" height="11" rx="2.5" fill="#8b949e"/><text x="290" y="198" font-size="12" fill="#e6edf3">Other</text><text x="444" y="198" text-anchor="end" font-size="11" font-family="monospace" fill="#7d8590">2%</text></svg>