<svg xmlns="http://www.w3.org/2000/svg" viewBox="0 0 460 290" width="460" height="290" font-family="-apple-system,BlinkMacSystemFont,'Segoe UI',Helvetica,Arial,sans-serif"><rect width="460" height="290" rx="14" fill="#161b22"/><path d="M132.00 41.00 A104 104 0 1 1 35.92 105.20 L80.26 123.57 A56 56 0 1 0 132.00 89.00 Z" fill="#b07219"><title>Java: 81.3% (81%)</title></path><path d="M35.92 105.20 A104 104 0 0 1 77.29 56.55 L102.54 97.37 A56 56 0 0 0 80.26 123.57 Z" fill="#f1e05a"><title>JavaScript: 9.9% (10%)</title></path><path d="M77.29 56.55 A104 104 0 0 1 89.17 50.23 L108.94 93.97 A56 56 0 0 0 102.54 97.37 Z" fill="#292929"><title>JSON: 2.1% (2%)</title></path><path d="M89.17 50.23 A104 104 0 0 1 99.24 46.29 L114.36 91.85 A56 56 0 0 0 108.94 93.97 Z" fill="#563d7c"><title>CSS: 1.7% (2%)</title></path><path d="M99.24 46.29 A104 104 0 0 1 107.92 43.83 L119.03 90.52 A56 56 0 0 0 114.36 91.85 Z" fill="#E22837"><title>mcfunction: 1.4% (1%)</title></path><path d="M107.92 43.83 A104 104 0 0 1 115.94 42.25 L123.35 89.67 A56 56 0 0 0 119.03 90.52 Z" fill="#083fa1"><title>Markdown: 1.3% (1%)</title></path><path d="M115.94 42.25 A104 104 0 0 1 132.00 41.00 L132.00 89.00 A56 56 0 0 0 123.35 89.67 Z" fill="#8b949e"><title>Other: 2.5% (2%)</title></path><rect x="272" y="21" width="11" height="11" rx="2.5" fill="#b07219"/><text x="290" y="30" font-size="12" fill="#e6edf3">Java</text><text x="444" y="30" text-anchor="end" font-size="11" font-family="monospace" fill="#7d8590">81%</text><rect x="272" y="49" width="11" height="11" rx="2.5" fill="#f1e05a"/><text x="290" y="58" font-size="12" fill="#e6edf3">JavaScript</text><text x="444" y="58" text-anchor="end" font-size="11" font-family="monospace" fill="#7d8590">10%</text><rect x="272" y="77" width="11" height="11" rx="2.5" fill="#292929"/><text x="290" y="86" font-size="12" fill="#e6edf3">JSON</text><text x="444" y="86" text-anchor="end" font-size="11" font-family="monospace" fill="#7d8590">2%</text><rect x="272" y="105" width="11" height="11" rx="2.5" fill="#563d7c"/><text x="290" y="114" font-size="12" fill="#e6edf3">CSS</text><text x="444" y="114" text-anchor="end" font-size="11" font-family="monospace" fill="#7d8590">2%</text><rect x="272" y="133" width="11" height="11" rx="2.5" fill="#E22837"/><text x="290" y="142" font-size="12" fill="#e6edf3">mcfunction</text><text x="444" y="142" text-anchor="end" font-size="11" font-family="monospace" fill="#7d8590">1%</text><rect x="272" y="161" width="11" height="11" rx="2.5" fill="#083fa1"/><text x="290" y="170" font-size="12" fill="#e6edf3">Markdown</text><text x="444" y="170" text-anchor="end" font-size="11" font-family="monospace" fill="#7d8590">1%</text><rect x="272" y="189" width="11" height="11" rx="2.5" fill="#8b949e"/><text x="290" y="198" font-size="12" fill="#e6edf3">Other</text><text x="444" y="198" text-anchor="end" font-size="11" font-family="monospace" fill="#7d8590">2%</text></svg>