<svg xmlns="http://www.w3.org/2000/svg" viewBox="0 0 460 290" width="460" height="290" font-family="-apple-system,BlinkMacSystemFont,'Segoe UI',Helvetica,Arial,sans-serif"><rect width="460" height="290" rx="14" fill="#161b22"/><line x1="34" y1="246" x2="426" y2="246" stroke="#30363d"/><path d="M34.0 246 L34.0 26.0L73.2 79.0L112.4 221.5L151.6 224.9L190.8 226.4L230.0 234.9L269.2 236.4L308.4 237.7L347.6 239.3L386.8 241.0L426.0 243.8 L426.0 246 Z" fill="rgba(124,106,247,0.3)"/><path d="M34.0 26.0L73.2 79.0L112.4 221.5L151.6 224.9L190.8 226.4L230.0 234.9L269.2 236.4L308.4 237.7L347.6 239.3L386.8 241.0L426.0 243.8" fill="none" stroke="#7c6af7" stroke-width="2.5" stroke-linejoin="round"/><circle cx="34.0" cy="26.0" r="3.6" fill="#7c6af7" stroke="#161b22" stroke-width="1.5"><title>Java: 44.4%</title></circle><circle cx="73.2" cy="79.0" r="3.6" fill="#7c6af7" stroke="#161b22" stroke-width="1.5"><title>JavaScript: 33.7%</title></circle><circle cx="112.4" cy="221.5" r="3.6" fill="#7c6af7" stroke="#161b22" stroke-width="1.5"><title>Shell: 5.0%</title></circle><circle cx="151.6" cy="224.9" r="3.6" fill="#7c6af7" stroke="#161b22" stroke-width="1.5"><title>JSON: 4.3%</title></circle><circle cx="190.8" cy="226.4" r="3.6" fill="#7c6af7" stroke="#161b22" stroke-width="1.5"><title>CSS: 4.0%</title></circle><circle cx="230.0" cy="234.9" r="3.6" fill="#7c6af7" stroke="#161b22" stroke-width="1.5"><title>Markdown: 2.2%</title></circle><circle cx="269.2" cy="236.4" r="3.6" fill="#7c6af7" stroke="#161b22" stroke-width="1.5"><title>Batchfile: 1.9%</title></circle><circle cx="308.4" cy="237.7" r="3.6" fill="#7c6af7" stroke="#161b22" stroke-width="1.5"><title>Swift: 1.7%</title></circle><circle cx="347.6" cy="239.3" r="3.6" fill="#7c6af7" stroke="#161b22" stroke-width="1.5"><title>HTML: 1.4%</title></circle><circle cx="386.8" cy="241.0" r="3.6" fill="#7c6af7" stroke="#161b22" stroke-width="1.5"><title>PowerShell: 1.0%</title></circle><circle cx="426.0" cy="243.8" r="3.6" fill="#7c6af7" stroke="#161b22" stroke-width="1.5"><title>Other: 0.5%</title></circle><text x="34.0" y="265" text-anchor="middle" font-size="11" fill="#7d8590">Java</text><text x="73.2" y="265" text-anchor="middle" font-size="11" fill="#7d8590">JavaScript</text><text x="112.4" y="265" text-anchor="middle" font-size="11" fill="#7d8590">Shell</text><text x="151.6" y="265" text-anchor="middle" font-size="11" fill="#7d8590">JSON</text><text x="190.8" y="265" text-anchor="middle" font-size="11" fill="#7d8590">CSS</text><text x="230.0" y="265" text-anchor="middle" font-size="11" fill="#7d8590">Markdown</text><text x="269.2" y="265" text-anchor="middle" font-size="11" fill="#7d8590">Batchfile</text><text x="308.4" y="265" text-anchor="middle" font-size="11" fill="#7d8590">Swift</text><text x="347.6" y="265" text-anchor="middle" font-size="11" fill="#7d8590">HTML</text><text x="386.8" y="265" text-anchor="middle" font-size="11" fill="#7d8590">PowerShell</text><text x="426.0" y="265" text-anchor="middle" font-size="11" fill="#7d8590">Other</text></svg>