<svg xmlns="http://www.w3.org/2000/svg" viewBox="0 0 460 290" width="460" height="290" font-family="-apple-system,BlinkMacSystemFont,'Segoe UI',Helvetica,Arial,sans-serif"><rect width="460" height="290" rx="14" fill="#161b22"/><path d="M132.00 41.00 A104 104 0 0 1 163.21 244.21 L148.81 198.42 A56 56 0 0 0 132.00 89.00 Z" fill="#b07219"><title>Java: 45.1% (45%)</title></path><path d="M163.21 244.21 A104 104 0 0 1 52.18 211.67 L89.02 180.90 A56 56 0 0 0 148.81 198.42 Z" fill="#f1e05a"><title>JavaScript: 18.8% (19%)</title></path><path d="M52.18 211.67 A104 104 0 0 1 30.44 122.61 L77.31 132.94 A56 56 0 0 0 89.02 180.90 Z" fill="#E22837"><title>mcfunction: 14.5% (15%)</title></path><path d="M30.44 122.61 A104 104 0 0 1 45.26 87.63 L85.29 114.11 A56 56 0 0 0 77.31 132.94 Z" fill="#292929"><title>JSON: 5.8% (6%)</title></path><path d="M45.26 87.63 A104 104 0 0 1 69.84 61.62 L98.53 100.10 A56 56 0 0 0 85.29 114.11 Z" fill="#F05138"><title>Swift: 5.5% (6%)</title></path><path d="M69.84 61.62 A104 104 0 0 1 88.66 50.46 L108.66 94.10 A56 56 0 0 0 98.53 100.10 Z" fill="#563d7c"><title>CSS: 3.4% (3%)</title></path><path d="M88.66 50.46 A104 104 0 0 1 99.08 46.35 L114.27 91.88 A56 56 0 0 0 108.66 94.10 Z" fill="#89e051"><title>Shell: 1.7% (2%)</title></path><path d="M99.08 46.35 A104 104 0 0 1 107.58 43.91 L118.85 90.57 A56 56 0 0 0 114.27 91.88 Z" fill="#3fb68b"><title>Common Lisp: 1.4% (1%)</title></path><path d="M107.58 43.91 A104 104 0 0 1 115.71 42.28 L123.23 89.69 A56 56 0 0 0 118.85 90.57 Z" fill="#3178c6"><title>TypeScript: 1.3% (1%)</title></path><path d="M115.71 42.28 A104 104 0 0 1 123.04 41.39 L127.18 89.21 A56 56 0 0 0 123.23 89.69 Z" fill="#e34c26"><title>HTML: 1.1% (1%)</title></path><path d="M123.04 41.39 A104 104 0 0 1 132.00 41.00 L132.00 89.00 A56 56 0 0 0 127.18 89.21 Z" fill="#8b949e"><title>Other: 1.4% (1%)</title></path><rect x="272" y="21" width="11" height="11" rx="2.5" fill="#b07219"/><text x="290" y="30" font-size="12" fill="#e6edf3">Java</text><text x="444" y="30" text-anchor="end" font-size="11" font-family="monospace" fill="#7d8590">45%</text><rect x="272" y="43.72727272727273" width="11" height="11" rx="2.5" fill="#f1e05a"/><text x="290" y="52.72727272727273" font-size="12" fill="#e6edf3">JavaScript</text><text x="444" y="52.72727272727273" text-anchor="end" font-size="11" font-family="monospace" fill="#7d8590">19%</text><rect x="272" y="66.45454545454545" width="11" height="11" rx="2.5" fill="#E22837"/><text x="290" y="75.45454545454545" font-size="12" fill="#e6edf3">mcfunction</text><text x="444" y="75.45454545454545" text-anchor="end" font-size="11" font-family="monospace" fill="#7d8590">15%</text><rect x="272" y="89.18181818181819" width="11" height="11" rx="2.5" fill="#292929"/><text x="290" y="98.18181818181819" font-size="12" fill="#e6edf3">JSON</text><text x="444" y="98.18181818181819" text-anchor="end" font-size="11" font-family="monospace" fill="#7d8590">6%</text><rect x="272" y="111.9090909090909" width="11" height="11" rx="2.5" fill="#F05138"/><text x="290" y="120.9090909090909" font-size="12" fill="#e6edf3">Swift</text><text x="444" y="120.9090909090909" text-anchor="end" font-size="11" font-family="monospace" fill="#7d8590">6%</text><rect x="272" y="134.63636363636363" width="11" height="11" rx="2.5" fill="#563d7c"/><text x="290" y="143.63636363636363" font-size="12" fill="#e6edf3">CSS</text><text x="444" y="143.63636363636363" text-anchor="end" font-size="11" font-family="monospace" fill="#7d8590">3%</text><rect x="272" y="157.36363636363637" width="11" height="11" rx="2.5" fill="#89e051"/><text x="290" y="166.36363636363637" font-size="12" fill="#e6edf3">Shell</text><text x="444" y="166.36363636363637" text-anchor="end" font-size="11" font-family="monospace" fill="#7d8590">2%</text><rect x="272" y="180.0909090909091" width="11" height="11" rx="2.5" fill="#3fb68b"/><text x="290" y="189.0909090909091" font-size="12" fill="#e6edf3">Common Lisp</text><text x="444" y="189.0909090909091" text-anchor="end" font-size="11" font-family="monospace" fill="#7d8590">1%</text><rect x="272" y="202.8181818181818" width="11" height="11" rx="2.5" fill="#3178c6"/><text x="290" y="211.8181818181818" font-size="12" fill="#e6edf3">TypeScript</text><text x="444" y="211.8181818181818" text-anchor="end" font-size="11" font-family="monospace" fill="#7d8590">1%</text><rect x="272" y="225.54545454545453" width="11" height="11" rx="2.5" fill="#e34c26"/><text x="290" y="234.54545454545453" font-size="12" fill="#e6edf3">HTML</text><text x="444" y="234.54545454545453" text-anchor="end" font-size="11" font-family="monospace" fill="#7d8590">1%</text><rect x="272" y="248.27272727272725" width="11" height="11" rx="2.5" fill="#8b949e"/><text x="290" y="257.27272727272725" font-size="12" fill="#e6edf3">Other</text><text x="444" y="257.27272727272725" text-anchor="end" font-size="11" font-family="monospace" fill="#7d8590">1%</text></svg>