<svg xmlns="http://www.w3.org/2000/svg" viewBox="0 0 460 290" width="460" height="290" font-family="-apple-system,BlinkMacSystemFont,'Segoe UI',Helvetica,Arial,sans-serif"><rect width="460" height="290" rx="14" fill="#161b22"/><path d="M132.00 41.00 A104 104 0 1 1 65.24 65.25 L96.05 102.06 A56 56 0 1 0 132.00 89.00 Z" fill="#b07219"><title>Java: 88.9% (89%)</title></path><path d="M65.24 65.25 A104 104 0 0 1 82.92 53.31 L105.57 95.63 A56 56 0 0 0 96.05 102.06 Z" fill="#f1e05a"><title>JavaScript: 3.3% (3%)</title></path><path d="M82.92 53.31 A104 104 0 0 1 96.80 47.14 L113.05 92.30 A56 56 0 0 0 105.57 95.63 Z" fill="#292929"><title>JSON: 2.3% (2%)</title></path><path d="M96.80 47.14 A104 104 0 0 1 107.09 44.03 L118.59 90.63 A56 56 0 0 0 113.05 92.30 Z" fill="#E22837"><title>mcfunction: 1.6% (2%)</title></path><path d="M107.09 44.03 A104 104 0 0 1 113.94 42.58 L122.27 89.85 A56 56 0 0 0 118.59 90.63 Z" fill="#083fa1"><title>Markdown: 1.1% (1%)</title></path><path d="M113.94 42.58 A104 104 0 0 1 132.00 41.00 L132.00 89.00 A56 56 0 0 0 122.27 89.85 Z" fill="#8b949e"><title>Other: 2.8% (3%)</title></path><rect x="272" y="21" width="11" height="11" rx="2.5" fill="#b07219"/><text x="290" y="30" font-size="12" fill="#e6edf3">Java</text><text x="444" y="30" text-anchor="end" font-size="11" font-family="monospace" fill="#7d8590">89%</text><rect x="272" y="49" width="11" height="11" rx="2.5" fill="#f1e05a"/><text x="290" y="58" font-size="12" fill="#e6edf3">JavaScript</text><text x="444" y="58" text-anchor="end" font-size="11" font-family="monospace" fill="#7d8590">3%</text><rect x="272" y="77" width="11" height="11" rx="2.5" fill="#292929"/><text x="290" y="86" font-size="12" fill="#e6edf3">JSON</text><text x="444" y="86" text-anchor="end" font-size="11" font-family="monospace" fill="#7d8590">2%</text><rect x="272" y="105" width="11" height="11" rx="2.5" fill="#E22837"/><text x="290" y="114" font-size="12" fill="#e6edf3">mcfunction</text><text x="444" y="114" text-anchor="end" font-size="11" font-family="monospace" fill="#7d8590">2%</text><rect x="272" y="133" width="11" height="11" rx="2.5" fill="#083fa1"/><text x="290" y="142" font-size="12" fill="#e6edf3">Markdown</text><text x="444" y="142" text-anchor="end" font-size="11" font-family="monospace" fill="#7d8590">1%</text><rect x="272" y="161" width="11" height="11" rx="2.5" fill="#8b949e"/><text x="290" y="170" font-size="12" fill="#e6edf3">Other</text><text x="444" y="170" text-anchor="end" font-size="11" font-family="monospace" fill="#7d8590">3%</text></svg>