<svg xmlns="http://www.w3.org/2000/svg" viewBox="0 0 460 328" width="460" height="328" font-family="-apple-system,BlinkMacSystemFont,'Segoe UI',Helvetica,Arial,sans-serif"><rect width="460" height="328" rx="14" fill="#161b22"/><text x="112" y="33" text-anchor="end" font-size="12" fill="#e6edf3">Java</text><rect x="124" y="23" width="262" height="12" rx="6" fill="rgba(255,255,255,0.06)"/><rect x="124" y="23" width="262.0" height="12" rx="6" fill="#b07219"><title>Java: 46.4%</title></rect><text x="396" y="33" font-size="11" font-family="monospace" fill="#7d8590">46.4%</text><text x="112" y="63" text-anchor="end" font-size="12" fill="#e6edf3">JavaScript</text><rect x="124" y="53" width="262" height="12" rx="6" fill="rgba(255,255,255,0.06)"/><rect x="124" y="53" width="198.9" height="12" rx="6" fill="#f1e05a"><title>JavaScript: 35.2%</title></rect><text x="396" y="63" font-size="11" font-family="monospace" fill="#7d8590">35.2%</text><text x="112" y="93" text-anchor="end" font-size="12" fill="#e6edf3">Shell</text><rect x="124" y="83" width="262" height="12" rx="6" fill="rgba(255,255,255,0.06)"/><rect x="124" y="83" width="29.2" height="12" rx="6" fill="#89e051"><title>Shell: 5.2%</title></rect><text x="396" y="93" font-size="11" font-family="monospace" fill="#7d8590">5.2%</text><text x="112" y="123" text-anchor="end" font-size="12" fill="#e6edf3">CSS</text><rect x="124" y="113" width="262" height="12" rx="6" fill="rgba(255,255,255,0.06)"/><rect x="124" y="113" width="23.4" height="12" rx="6" fill="#563d7c"><title>CSS: 4.1%</title></rect><text x="396" y="123" font-size="11" font-family="monospace" fill="#7d8590">4.1%</text><text x="112" y="153" text-anchor="end" font-size="12" fill="#e6edf3">Markdown</text><rect x="124" y="143" width="262" height="12" rx="6" fill="rgba(255,255,255,0.06)"/><rect x="124" y="143" width="13.2" height="12" rx="6" fill="#083fa1"><title>Markdown: 2.3%</title></rect><text x="396" y="153" font-size="11" font-family="monospace" fill="#7d8590">2.3%</text><text x="112" y="183" text-anchor="end" font-size="12" fill="#e6edf3">Batchfile</text><rect x="124" y="173" width="262" height="12" rx="6" fill="rgba(255,255,255,0.06)"/><rect x="124" y="173" width="11.4" height="12" rx="6" fill="#C1F12E"><title>Batchfile: 2.0%</title></rect><text x="396" y="183" font-size="11" font-family="monospace" fill="#7d8590">2.0%</text><text x="112" y="213" text-anchor="end" font-size="12" fill="#e6edf3">Swift</text><rect x="124" y="203" width="262" height="12" rx="6" fill="rgba(255,255,255,0.06)"/><rect x="124" y="203" width="9.9" height="12" rx="6" fill="#F05138"><title>Swift: 1.7%</title></rect><text x="396" y="213" font-size="11" font-family="monospace" fill="#7d8590">1.7%</text><text x="112" y="243" text-anchor="end" font-size="12" fill="#e6edf3">HTML</text><rect x="124" y="233" width="262" height="12" rx="6" fill="rgba(255,255,255,0.06)"/><rect x="124" y="233" width="8.0" height="12" rx="6" fill="#e34c26"><title>HTML: 1.4%</title></rect><text x="396" y="243" font-size="11" font-family="monospace" fill="#7d8590">1.4%</text><text x="112" y="273" text-anchor="end" font-size="12" fill="#e6edf3">PowerShell</text><rect x="124" y="263" width="262" height="12" rx="6" fill="rgba(255,255,255,0.06)"/><rect x="124" y="263" width="6.0" height="12" rx="6" fill="#8b949e"><title>PowerShell: 1.1%</title></rect><text x="396" y="273" font-size="11" font-family="monospace" fill="#7d8590">1.1%</text><text x="112" y="303" text-anchor="end" font-size="12" fill="#e6edf3">Other</text><rect x="124" y="293" width="262" height="12" rx="6" fill="rgba(255,255,255,0.06)"/><rect x="124" y="293" width="3.0" height="12" rx="6" fill="#8b949e"><title>Other: 0.5%</title></rect><text x="396" y="303" font-size="11" font-family="monospace" fill="#7d8590">0.5%</text></svg>