<svg xmlns="http://www.w3.org/2000/svg" viewBox="0 0 460 290" width="460" height="290" font-family="-apple-system,BlinkMacSystemFont,'Segoe UI',Helvetica,Arial,sans-serif"><rect width="460" height="290" rx="14" fill="#161b22"/><path d="M132.00 41.00 A104 104 0 0 1 147.42 247.85 L140.30 200.38 A56 56 0 0 0 132.00 89.00 Z" fill="#f1e05a"><title>JavaScript: 47.6% (48%)</title></path><path d="M147.42 247.85 A104 104 0 0 1 28.24 137.93 L76.13 141.19 A56 56 0 0 0 140.30 200.38 Z" fill="#b07219"><title>Java: 28.5% (28%)</title></path><path d="M28.24 137.93 A104 104 0 0 1 37.77 100.99 L81.26 121.30 A56 56 0 0 0 76.13 141.19 Z" fill="#292929"><title>JSON: 5.9% (6%)</title></path><path d="M37.77 100.99 A104 104 0 0 1 58.05 71.88 L92.18 105.63 A56 56 0 0 0 81.26 121.30 Z" fill="#563d7c"><title>CSS: 5.5% (5%)</title></path><path d="M58.05 71.88 A104 104 0 0 1 74.86 58.10 L101.23 98.21 A56 56 0 0 0 92.18 105.63 Z" fill="#89e051"><title>Shell: 3.3% (3%)</title></path><path d="M74.86 58.10 A104 104 0 0 1 93.37 48.44 L111.20 93.01 A56 56 0 0 0 101.23 98.21 Z" fill="#083fa1"><title>Markdown: 3.2% (3%)</title></path><path d="M93.37 48.44 A104 104 0 0 1 105.59 44.41 L117.78 90.84 A56 56 0 0 0 111.20 93.01 Z" fill="#e34c26"><title>HTML: 2.0% (2%)</title></path><path d="M105.59 44.41 A104 104 0 0 1 114.91 42.41 L122.80 89.76 A56 56 0 0 0 117.78 90.84 Z" fill="#8b949e"><title>PowerShell: 1.5% (1%)</title></path><path d="M114.91 42.41 A104 104 0 0 1 124.15 41.30 L127.77 89.16 A56 56 0 0 0 122.80 89.76 Z" fill="#F05138"><title>Swift: 1.4% (1%)</title></path><path d="M124.15 41.30 A104 104 0 0 1 132.00 41.00 L132.00 89.00 A56 56 0 0 0 127.77 89.16 Z" fill="#C1F12E"><title>Batchfile: 1.2% (1%)</title></path><rect x="272" y="21" width="11" height="11" rx="2.5" fill="#f1e05a"/><text x="290" y="30" font-size="12" fill="#e6edf3">JavaScript</text><text x="444" y="30" text-anchor="end" font-size="11" font-family="monospace" fill="#7d8590">48%</text><rect x="272" y="46" width="11" height="11" rx="2.5" fill="#b07219"/><text x="290" y="55" font-size="12" fill="#e6edf3">Java</text><text x="444" y="55" text-anchor="end" font-size="11" font-family="monospace" fill="#7d8590">28%</text><rect x="272" y="71" width="11" height="11" rx="2.5" fill="#292929"/><text x="290" y="80" font-size="12" fill="#e6edf3">JSON</text><text x="444" y="80" text-anchor="end" font-size="11" font-family="monospace" fill="#7d8590">6%</text><rect x="272" y="96" width="11" height="11" rx="2.5" fill="#563d7c"/><text x="290" y="105" font-size="12" fill="#e6edf3">CSS</text><text x="444" y="105" text-anchor="end" font-size="11" font-family="monospace" fill="#7d8590">5%</text><rect x="272" y="121" width="11" height="11" rx="2.5" fill="#89e051"/><text x="290" y="130" font-size="12" fill="#e6edf3">Shell</text><text x="444" y="130" text-anchor="end" font-size="11" font-family="monospace" fill="#7d8590">3%</text><rect x="272" y="146" width="11" height="11" rx="2.5" fill="#083fa1"/><text x="290" y="155" font-size="12" fill="#e6edf3">Markdown</text><text x="444" y="155" text-anchor="end" font-size="11" font-family="monospace" fill="#7d8590">3%</text><rect x="272" y="171" width="11" height="11" rx="2.5" fill="#e34c26"/><text x="290" y="180" font-size="12" fill="#e6edf3">HTML</text><text x="444" y="180" text-anchor="end" font-size="11" font-family="monospace" fill="#7d8590">2%</text><rect x="272" y="196" width="11" height="11" rx="2.5" fill="#8b949e"/><text x="290" y="205" font-size="12" fill="#e6edf3">PowerShell</text><text x="444" y="205" text-anchor="end" font-size="11" font-family="monospace" fill="#7d8590">1%</text><rect x="272" y="221" width="11" height="11" rx="2.5" fill="#F05138"/><text x="290" y="230" font-size="12" fill="#e6edf3">Swift</text><text x="444" y="230" text-anchor="end" font-size="11" font-family="monospace" fill="#7d8590">1%</text><rect x="272" y="246" width="11" height="11" rx="2.5" fill="#C1F12E"/><text x="290" y="255" font-size="12" fill="#e6edf3">Batchfile</text><text x="444" y="255" text-anchor="end" font-size="11" font-family="monospace" fill="#7d8590">1%</text></svg>