<svg xmlns="http://www.w3.org/2000/svg" viewBox="0 0 460 290" width="460" height="290" font-family="-apple-system,BlinkMacSystemFont,'Segoe UI',Helvetica,Arial,sans-serif"><rect width="460" height="290" rx="14" fill="#161b22"/><path d="M132.00 41.00 A104 104 0 1 1 35.89 105.28 L80.25 123.61 A56 56 0 1 0 132.00 89.00 Z" fill="#b07219"><title>Java: 81.2% (81%)</title></path><path d="M35.89 105.28 A104 104 0 0 1 77.48 56.44 L102.64 97.31 A56 56 0 0 0 80.25 123.61 Z" fill="#f1e05a"><title>JavaScript: 10.0% (10%)</title></path><path d="M77.48 56.44 A104 104 0 0 1 89.46 50.10 L109.10 93.90 A56 56 0 0 0 102.64 97.31 Z" fill="#292929"><title>JSON: 2.1% (2%)</title></path><path d="M89.46 50.10 A104 104 0 0 1 99.55 46.19 L114.53 91.80 A56 56 0 0 0 109.10 93.90 Z" fill="#563d7c"><title>CSS: 1.7% (2%)</title></path><path d="M99.55 46.19 A104 104 0 0 1 108.31 43.74 L119.24 90.47 A56 56 0 0 0 114.53 91.80 Z" fill="#E22837"><title>mcfunction: 1.4% (1%)</title></path><path d="M108.31 43.74 A104 104 0 0 1 116.40 42.18 L123.60 89.63 A56 56 0 0 0 119.24 90.47 Z" fill="#083fa1"><title>Markdown: 1.3% (1%)</title></path><path d="M116.40 42.18 A104 104 0 0 1 132.00 41.00 L132.00 89.00 A56 56 0 0 0 123.60 89.63 Z" fill="#8b949e"><title>Other: 2.4% (2%)</title></path><rect x="272" y="21" width="11" height="11" rx="2.5" fill="#b07219"/><text x="290" y="30" font-size="12" fill="#e6edf3">Java</text><text x="444" y="30" text-anchor="end" font-size="11" font-family="monospace" fill="#7d8590">81%</text><rect x="272" y="49" width="11" height="11" rx="2.5" fill="#f1e05a"/><text x="290" y="58" font-size="12" fill="#e6edf3">JavaScript</text><text x="444" y="58" text-anchor="end" font-size="11" font-family="monospace" fill="#7d8590">10%</text><rect x="272" y="77" width="11" height="11" rx="2.5" fill="#292929"/><text x="290" y="86" font-size="12" fill="#e6edf3">JSON</text><text x="444" y="86" text-anchor="end" font-size="11" font-family="monospace" fill="#7d8590">2%</text><rect x="272" y="105" width="11" height="11" rx="2.5" fill="#563d7c"/><text x="290" y="114" font-size="12" fill="#e6edf3">CSS</text><text x="444" y="114" text-anchor="end" font-size="11" font-family="monospace" fill="#7d8590">2%</text><rect x="272" y="133" width="11" height="11" rx="2.5" fill="#E22837"/><text x="290" y="142" font-size="12" fill="#e6edf3">mcfunction</text><text x="444" y="142" text-anchor="end" font-size="11" font-family="monospace" fill="#7d8590">1%</text><rect x="272" y="161" width="11" height="11" rx="2.5" fill="#083fa1"/><text x="290" y="170" font-size="12" fill="#e6edf3">Markdown</text><text x="444" y="170" text-anchor="end" font-size="11" font-family="monospace" fill="#7d8590">1%</text><rect x="272" y="189" width="11" height="11" rx="2.5" fill="#8b949e"/><text x="290" y="198" font-size="12" fill="#e6edf3">Other</text><text x="444" y="198" text-anchor="end" font-size="11" font-family="monospace" fill="#7d8590">2%</text></svg>