<svg xmlns="http://www.w3.org/2000/svg" viewBox="0 0 460 290" width="460" height="290" font-family="-apple-system,BlinkMacSystemFont,'Segoe UI',Helvetica,Arial,sans-serif"><rect width="460" height="290" rx="14" fill="#161b22"/><path d="M132.00 41.00 A104 104 0 1 1 59.66 70.28 L93.05 104.77 A56 56 0 1 0 132.00 89.00 Z" fill="#b07219"><title>Java: 87.8% (88%)</title></path><path d="M59.66 70.28 A104 104 0 0 1 80.30 54.76 L104.16 96.41 A56 56 0 0 0 93.05 104.77 Z" fill="#f1e05a"><title>JavaScript: 4.0% (4%)</title></path><path d="M80.30 54.76 A104 104 0 0 1 93.86 48.25 L111.46 92.90 A56 56 0 0 0 104.16 96.41 Z" fill="#292929"><title>JSON: 2.3% (2%)</title></path><path d="M93.86 48.25 A104 104 0 0 1 103.86 44.88 L116.85 91.09 A56 56 0 0 0 111.46 92.90 Z" fill="#E22837"><title>mcfunction: 1.6% (2%)</title></path><path d="M103.86 44.88 A104 104 0 0 1 110.53 43.24 L120.44 90.21 A56 56 0 0 0 116.85 91.09 Z" fill="#083fa1"><title>Markdown: 1.1% (1%)</title></path><path d="M110.53 43.24 A104 104 0 0 1 132.00 41.00 L132.00 89.00 A56 56 0 0 0 120.44 90.21 Z" fill="#8b949e"><title>Other: 3.3% (3%)</title></path><rect x="272" y="21" width="11" height="11" rx="2.5" fill="#b07219"/><text x="290" y="30" font-size="12" fill="#e6edf3">Java</text><text x="444" y="30" text-anchor="end" font-size="11" font-family="monospace" fill="#7d8590">88%</text><rect x="272" y="49" width="11" height="11" rx="2.5" fill="#f1e05a"/><text x="290" y="58" font-size="12" fill="#e6edf3">JavaScript</text><text x="444" y="58" text-anchor="end" font-size="11" font-family="monospace" fill="#7d8590">4%</text><rect x="272" y="77" width="11" height="11" rx="2.5" fill="#292929"/><text x="290" y="86" font-size="12" fill="#e6edf3">JSON</text><text x="444" y="86" text-anchor="end" font-size="11" font-family="monospace" fill="#7d8590">2%</text><rect x="272" y="105" width="11" height="11" rx="2.5" fill="#E22837"/><text x="290" y="114" font-size="12" fill="#e6edf3">mcfunction</text><text x="444" y="114" text-anchor="end" font-size="11" font-family="monospace" fill="#7d8590">2%</text><rect x="272" y="133" width="11" height="11" rx="2.5" fill="#083fa1"/><text x="290" y="142" font-size="12" fill="#e6edf3">Markdown</text><text x="444" y="142" text-anchor="end" font-size="11" font-family="monospace" fill="#7d8590">1%</text><rect x="272" y="161" width="11" height="11" rx="2.5" fill="#8b949e"/><text x="290" y="170" font-size="12" fill="#e6edf3">Other</text><text x="444" y="170" text-anchor="end" font-size="11" font-family="monospace" fill="#7d8590">3%</text></svg>