<svg xmlns="http://www.w3.org/2000/svg" viewBox="0 0 460 290" width="460" height="290" font-family="-apple-system,BlinkMacSystemFont,'Segoe UI',Helvetica,Arial,sans-serif"><rect width="460" height="290" rx="14" fill="#161b22"/><path d="M132.00 41.00 A104 104 0 1 1 53.98 76.24 L89.99 107.97 A56 56 0 1 0 132.00 89.00 Z" fill="#b07219"><title>Java: 86.5% (86%)</title></path><path d="M53.98 76.24 A104 104 0 0 1 79.37 55.30 L103.66 96.70 A56 56 0 0 0 89.99 107.97 Z" fill="#f1e05a"><title>JavaScript: 5.1% (5%)</title></path><path d="M79.37 55.30 A104 104 0 0 1 92.60 48.75 L110.78 93.17 A56 56 0 0 0 103.66 96.70 Z" fill="#292929"><title>JSON: 2.3% (2%)</title></path><path d="M92.60 48.75 A104 104 0 0 1 102.30 45.33 L116.01 91.33 A56 56 0 0 0 110.78 93.17 Z" fill="#E22837"><title>mcfunction: 1.6% (2%)</title></path><path d="M102.30 45.33 A104 104 0 0 1 109.52 43.46 L119.89 90.32 A56 56 0 0 0 116.01 91.33 Z" fill="#563d7c"><title>CSS: 1.1% (1%)</title></path><path d="M109.52 43.46 A104 104 0 0 1 116.32 42.19 L123.56 89.64 A56 56 0 0 0 119.89 90.32 Z" fill="#083fa1"><title>Markdown: 1.1% (1%)</title></path><path d="M116.32 42.19 A104 104 0 0 1 132.00 41.00 L132.00 89.00 A56 56 0 0 0 123.56 89.64 Z" fill="#8b949e"><title>Other: 2.4% (2%)</title></path><rect x="272" y="21" width="11" height="11" rx="2.5" fill="#b07219"/><text x="290" y="30" font-size="12" fill="#e6edf3">Java</text><text x="444" y="30" text-anchor="end" font-size="11" font-family="monospace" fill="#7d8590">86%</text><rect x="272" y="49" width="11" height="11" rx="2.5" fill="#f1e05a"/><text x="290" y="58" font-size="12" fill="#e6edf3">JavaScript</text><text x="444" y="58" text-anchor="end" font-size="11" font-family="monospace" fill="#7d8590">5%</text><rect x="272" y="77" width="11" height="11" rx="2.5" fill="#292929"/><text x="290" y="86" font-size="12" fill="#e6edf3">JSON</text><text x="444" y="86" text-anchor="end" font-size="11" font-family="monospace" fill="#7d8590">2%</text><rect x="272" y="105" width="11" height="11" rx="2.5" fill="#E22837"/><text x="290" y="114" font-size="12" fill="#e6edf3">mcfunction</text><text x="444" y="114" text-anchor="end" font-size="11" font-family="monospace" fill="#7d8590">2%</text><rect x="272" y="133" width="11" height="11" rx="2.5" fill="#563d7c"/><text x="290" y="142" font-size="12" fill="#e6edf3">CSS</text><text x="444" y="142" text-anchor="end" font-size="11" font-family="monospace" fill="#7d8590">1%</text><rect x="272" y="161" width="11" height="11" rx="2.5" fill="#083fa1"/><text x="290" y="170" font-size="12" fill="#e6edf3">Markdown</text><text x="444" y="170" text-anchor="end" font-size="11" font-family="monospace" fill="#7d8590">1%</text><rect x="272" y="189" width="11" height="11" rx="2.5" fill="#8b949e"/><text x="290" y="198" font-size="12" fill="#e6edf3">Other</text><text x="444" y="198" text-anchor="end" font-size="11" font-family="monospace" fill="#7d8590">2%</text></svg>