<svg xmlns="http://www.w3.org/2000/svg" viewBox="0 0 460 290" width="460" height="290" font-family="-apple-system,BlinkMacSystemFont,'Segoe UI',Helvetica,Arial,sans-serif"><rect width="460" height="290" rx="14" fill="#161b22"/><line x1="34" y1="246" x2="426" y2="246" stroke="#30363d"/><path d="M34.0 246 L34.0 26.0L112.4 237.2L190.8 240.3L269.2 242.0L347.6 243.4L426.0 238.3 L426.0 246 Z" fill="rgba(124,106,247,0.3)"/><path d="M34.0 26.0L112.4 237.2L190.8 240.3L269.2 242.0L347.6 243.4L426.0 238.3" fill="none" stroke="#7c6af7" stroke-width="2.5" stroke-linejoin="round"/><circle cx="34.0" cy="26.0" r="3.6" fill="#7c6af7" stroke="#161b22" stroke-width="1.5"><title>Java: 88.4%</title></circle><circle cx="112.4" cy="237.2" r="3.6" fill="#7c6af7" stroke="#161b22" stroke-width="1.5"><title>JavaScript: 3.5%</title></circle><circle cx="190.8" cy="240.3" r="3.6" fill="#7c6af7" stroke="#161b22" stroke-width="1.5"><title>JSON: 2.3%</title></circle><circle cx="269.2" cy="242.0" r="3.6" fill="#7c6af7" stroke="#161b22" stroke-width="1.5"><title>mcfunction: 1.6%</title></circle><circle cx="347.6" cy="243.4" r="3.6" fill="#7c6af7" stroke="#161b22" stroke-width="1.5"><title>Markdown: 1.1%</title></circle><circle cx="426.0" cy="238.3" r="3.6" fill="#7c6af7" stroke="#161b22" stroke-width="1.5"><title>Other: 3.1%</title></circle><text x="34.0" y="265" text-anchor="middle" font-size="11" fill="#7d8590">Java</text><text x="112.4" y="265" text-anchor="middle" font-size="11" fill="#7d8590">JavaScript</text><text x="190.8" y="265" text-anchor="middle" font-size="11" fill="#7d8590">JSON</text><text x="269.2" y="265" text-anchor="middle" font-size="11" fill="#7d8590">mcfunction</text><text x="347.6" y="265" text-anchor="middle" font-size="11" fill="#7d8590">Markdown</text><text x="426.0" y="265" text-anchor="middle" font-size="11" fill="#7d8590">Other</text></svg>