<svg xmlns="http://www.w3.org/2000/svg" viewBox="0 0 460 290" width="460" height="290" font-family="-apple-system,BlinkMacSystemFont,'Segoe UI',Helvetica,Arial,sans-serif"><rect width="460" height="290" rx="14" fill="#161b22"/><path d="M132.00 41.00 A104 104 0 1 1 51.71 78.90 L88.77 109.41 A56 56 0 1 0 132.00 89.00 Z" fill="#b07219"><title>Java: 86.0% (86%)</title></path><path d="M51.71 78.90 A104 104 0 0 1 78.87 55.60 L103.39 96.86 A56 56 0 0 0 88.77 109.41 Z" fill="#f1e05a"><title>JavaScript: 5.5% (6%)</title></path><path d="M78.87 55.60 A104 104 0 0 1 91.98 49.01 L110.45 93.31 A56 56 0 0 0 103.39 96.86 Z" fill="#292929"><title>JSON: 2.2% (2%)</title></path><path d="M91.98 49.01 A104 104 0 0 1 101.59 45.55 L115.63 91.45 A56 56 0 0 0 110.45 93.31 Z" fill="#E22837"><title>mcfunction: 1.6% (2%)</title></path><path d="M101.59 45.55 A104 104 0 0 1 109.22 43.52 L119.74 90.36 A56 56 0 0 0 115.63 91.45 Z" fill="#563d7c"><title>CSS: 1.2% (1%)</title></path><path d="M109.22 43.52 A104 104 0 0 1 115.98 42.24 L123.37 89.67 A56 56 0 0 0 119.74 90.36 Z" fill="#083fa1"><title>Markdown: 1.1% (1%)</title></path><path d="M115.98 42.24 A104 104 0 0 1 132.00 41.00 L132.00 89.00 A56 56 0 0 0 123.37 89.67 Z" fill="#8b949e"><title>Other: 2.5% (2%)</title></path><rect x="272" y="21" width="11" height="11" rx="2.5" fill="#b07219"/><text x="290" y="30" font-size="12" fill="#e6edf3">Java</text><text x="444" y="30" text-anchor="end" font-size="11" font-family="monospace" fill="#7d8590">86%</text><rect x="272" y="49" width="11" height="11" rx="2.5" fill="#f1e05a"/><text x="290" y="58" font-size="12" fill="#e6edf3">JavaScript</text><text x="444" y="58" text-anchor="end" font-size="11" font-family="monospace" fill="#7d8590">6%</text><rect x="272" y="77" width="11" height="11" rx="2.5" fill="#292929"/><text x="290" y="86" font-size="12" fill="#e6edf3">JSON</text><text x="444" y="86" text-anchor="end" font-size="11" font-family="monospace" fill="#7d8590">2%</text><rect x="272" y="105" width="11" height="11" rx="2.5" fill="#E22837"/><text x="290" y="114" font-size="12" fill="#e6edf3">mcfunction</text><text x="444" y="114" text-anchor="end" font-size="11" font-family="monospace" fill="#7d8590">2%</text><rect x="272" y="133" width="11" height="11" rx="2.5" fill="#563d7c"/><text x="290" y="142" font-size="12" fill="#e6edf3">CSS</text><text x="444" y="142" text-anchor="end" font-size="11" font-family="monospace" fill="#7d8590">1%</text><rect x="272" y="161" width="11" height="11" rx="2.5" fill="#083fa1"/><text x="290" y="170" font-size="12" fill="#e6edf3">Markdown</text><text x="444" y="170" text-anchor="end" font-size="11" font-family="monospace" fill="#7d8590">1%</text><rect x="272" y="189" width="11" height="11" rx="2.5" fill="#8b949e"/><text x="290" y="198" font-size="12" fill="#e6edf3">Other</text><text x="444" y="198" text-anchor="end" font-size="11" font-family="monospace" fill="#7d8590">2%</text></svg>