<svg xmlns="http://www.w3.org/2000/svg" viewBox="0 0 460 290" width="460" height="290" font-family="-apple-system,BlinkMacSystemFont,'Segoe UI',Helvetica,Arial,sans-serif"><rect width="460" height="290" rx="14" fill="#161b22"/><path d="M132.00 41.00 A104 104 0 1 1 40.76 95.09 L82.87 118.12 A56 56 0 1 0 132.00 89.00 Z" fill="#b07219"><title>Java: 83.0% (83%)</title></path><path d="M40.76 95.09 A104 104 0 0 1 75.57 57.64 L101.62 97.96 A56 56 0 0 0 82.87 118.12 Z" fill="#f1e05a"><title>JavaScript: 7.9% (8%)</title></path><path d="M75.57 57.64 A104 104 0 0 1 88.64 50.47 L108.65 94.10 A56 56 0 0 0 101.62 97.96 Z" fill="#292929"><title>JSON: 2.3% (2%)</title></path><path d="M88.64 50.47 A104 104 0 0 1 99.04 46.36 L114.25 91.89 A56 56 0 0 0 108.65 94.10 Z" fill="#563d7c"><title>CSS: 1.7% (2%)</title></path><path d="M99.04 46.36 A104 104 0 0 1 108.94 43.59 L119.58 90.39 A56 56 0 0 0 114.25 91.89 Z" fill="#E22837"><title>mcfunction: 1.6% (2%)</title></path><path d="M108.94 43.59 A104 104 0 0 1 115.75 42.28 L123.25 89.69 A56 56 0 0 0 119.58 90.39 Z" fill="#083fa1"><title>Markdown: 1.1% (1%)</title></path><path d="M115.75 42.28 A104 104 0 0 1 132.00 41.00 L132.00 89.00 A56 56 0 0 0 123.25 89.69 Z" fill="#8b949e"><title>Other: 2.5% (2%)</title></path><rect x="272" y="21" width="11" height="11" rx="2.5" fill="#b07219"/><text x="290" y="30" font-size="12" fill="#e6edf3">Java</text><text x="444" y="30" text-anchor="end" font-size="11" font-family="monospace" fill="#7d8590">83%</text><rect x="272" y="49" width="11" height="11" rx="2.5" fill="#f1e05a"/><text x="290" y="58" font-size="12" fill="#e6edf3">JavaScript</text><text x="444" y="58" text-anchor="end" font-size="11" font-family="monospace" fill="#7d8590">8%</text><rect x="272" y="77" width="11" height="11" rx="2.5" fill="#292929"/><text x="290" y="86" font-size="12" fill="#e6edf3">JSON</text><text x="444" y="86" text-anchor="end" font-size="11" font-family="monospace" fill="#7d8590">2%</text><rect x="272" y="105" width="11" height="11" rx="2.5" fill="#563d7c"/><text x="290" y="114" font-size="12" fill="#e6edf3">CSS</text><text x="444" y="114" text-anchor="end" font-size="11" font-family="monospace" fill="#7d8590">2%</text><rect x="272" y="133" width="11" height="11" rx="2.5" fill="#E22837"/><text x="290" y="142" font-size="12" fill="#e6edf3">mcfunction</text><text x="444" y="142" text-anchor="end" font-size="11" font-family="monospace" fill="#7d8590">2%</text><rect x="272" y="161" width="11" height="11" rx="2.5" fill="#083fa1"/><text x="290" y="170" font-size="12" fill="#e6edf3">Markdown</text><text x="444" y="170" text-anchor="end" font-size="11" font-family="monospace" fill="#7d8590">1%</text><rect x="272" y="189" width="11" height="11" rx="2.5" fill="#8b949e"/><text x="290" y="198" font-size="12" fill="#e6edf3">Other</text><text x="444" y="198" text-anchor="end" font-size="11" font-family="monospace" fill="#7d8590">2%</text></svg>