<svg xmlns="http://www.w3.org/2000/svg" viewBox="0 0 460 290" width="460" height="290" font-family="-apple-system,BlinkMacSystemFont,'Segoe UI',Helvetica,Arial,sans-serif"><rect width="460" height="290" rx="14" fill="#161b22"/><path d="M132.00 41.00 A104 104 0 1 1 35.91 105.21 L80.26 123.58 A56 56 0 1 0 132.00 89.00 Z" fill="#b07219"><title>Java: 81.2% (81%)</title></path><path d="M35.91 105.21 A104 104 0 0 1 77.56 56.39 L102.68 97.29 A56 56 0 0 0 80.26 123.58 Z" fill="#f1e05a"><title>JavaScript: 10.0% (10%)</title></path><path d="M77.56 56.39 A104 104 0 0 1 89.50 50.08 L109.12 93.89 A56 56 0 0 0 102.68 97.29 Z" fill="#292929"><title>JSON: 2.1% (2%)</title></path><path d="M89.50 50.08 A104 104 0 0 1 99.64 46.16 L114.58 91.78 A56 56 0 0 0 109.12 93.89 Z" fill="#563d7c"><title>CSS: 1.7% (2%)</title></path><path d="M99.64 46.16 A104 104 0 0 1 108.37 43.72 L119.28 90.46 A56 56 0 0 0 114.58 91.78 Z" fill="#E22837"><title>mcfunction: 1.4% (1%)</title></path><path d="M108.37 43.72 A104 104 0 0 1 116.45 42.17 L123.62 89.63 A56 56 0 0 0 119.28 90.46 Z" fill="#083fa1"><title>Markdown: 1.3% (1%)</title></path><path d="M116.45 42.17 A104 104 0 0 1 132.00 41.00 L132.00 89.00 A56 56 0 0 0 123.62 89.63 Z" fill="#8b949e"><title>Other: 2.4% (2%)</title></path><rect x="272" y="21" width="11" height="11" rx="2.5" fill="#b07219"/><text x="290" y="30" font-size="12" fill="#e6edf3">Java</text><text x="444" y="30" text-anchor="end" font-size="11" font-family="monospace" fill="#7d8590">81%</text><rect x="272" y="49" width="11" height="11" rx="2.5" fill="#f1e05a"/><text x="290" y="58" font-size="12" fill="#e6edf3">JavaScript</text><text x="444" y="58" text-anchor="end" font-size="11" font-family="monospace" fill="#7d8590">10%</text><rect x="272" y="77" width="11" height="11" rx="2.5" fill="#292929"/><text x="290" y="86" font-size="12" fill="#e6edf3">JSON</text><text x="444" y="86" text-anchor="end" font-size="11" font-family="monospace" fill="#7d8590">2%</text><rect x="272" y="105" width="11" height="11" rx="2.5" fill="#563d7c"/><text x="290" y="114" font-size="12" fill="#e6edf3">CSS</text><text x="444" y="114" text-anchor="end" font-size="11" font-family="monospace" fill="#7d8590">2%</text><rect x="272" y="133" width="11" height="11" rx="2.5" fill="#E22837"/><text x="290" y="142" font-size="12" fill="#e6edf3">mcfunction</text><text x="444" y="142" text-anchor="end" font-size="11" font-family="monospace" fill="#7d8590">1%</text><rect x="272" y="161" width="11" height="11" rx="2.5" fill="#083fa1"/><text x="290" y="170" font-size="12" fill="#e6edf3">Markdown</text><text x="444" y="170" text-anchor="end" font-size="11" font-family="monospace" fill="#7d8590">1%</text><rect x="272" y="189" width="11" height="11" rx="2.5" fill="#8b949e"/><text x="290" y="198" font-size="12" fill="#e6edf3">Other</text><text x="444" y="198" text-anchor="end" font-size="11" font-family="monospace" fill="#7d8590">2%</text></svg>