<svg xmlns="http://www.w3.org/2000/svg" viewBox="0 0 460 290" width="460" height="290" font-family="-apple-system,BlinkMacSystemFont,'Segoe UI',Helvetica,Arial,sans-serif"><rect width="460" height="290" rx="14" fill="#161b22"/><path d="M132.00 41.00 A104 104 0 1 1 49.51 81.66 L87.58 110.90 A56 56 0 1 0 132.00 89.00 Z" fill="#b07219"><title>Java: 85.4% (85%)</title></path><path d="M49.51 81.66 A104 104 0 0 1 78.61 55.75 L103.25 96.94 A56 56 0 0 0 87.58 110.90 Z" fill="#f1e05a"><title>JavaScript: 6.0% (6%)</title></path><path d="M78.61 55.75 A104 104 0 0 1 91.68 49.14 L110.29 93.38 A56 56 0 0 0 103.25 96.94 Z" fill="#292929"><title>JSON: 2.2% (2%)</title></path><path d="M91.68 49.14 A104 104 0 0 1 101.22 45.66 L115.42 91.51 A56 56 0 0 0 110.29 93.38 Z" fill="#E22837"><title>mcfunction: 1.6% (2%)</title></path><path d="M101.22 45.66 A104 104 0 0 1 109.36 43.50 L119.81 90.34 A56 56 0 0 0 115.42 91.51 Z" fill="#563d7c"><title>CSS: 1.3% (1%)</title></path><path d="M109.36 43.50 A104 104 0 0 1 116.09 42.22 L123.43 89.66 A56 56 0 0 0 119.81 90.34 Z" fill="#083fa1"><title>Markdown: 1.0% (1%)</title></path><path d="M116.09 42.22 A104 104 0 0 1 132.00 41.00 L132.00 89.00 A56 56 0 0 0 123.43 89.66 Z" fill="#8b949e"><title>Other: 2.4% (2%)</title></path><rect x="272" y="21" width="11" height="11" rx="2.5" fill="#b07219"/><text x="290" y="30" font-size="12" fill="#e6edf3">Java</text><text x="444" y="30" text-anchor="end" font-size="11" font-family="monospace" fill="#7d8590">85%</text><rect x="272" y="49" width="11" height="11" rx="2.5" fill="#f1e05a"/><text x="290" y="58" font-size="12" fill="#e6edf3">JavaScript</text><text x="444" y="58" text-anchor="end" font-size="11" font-family="monospace" fill="#7d8590">6%</text><rect x="272" y="77" width="11" height="11" rx="2.5" fill="#292929"/><text x="290" y="86" font-size="12" fill="#e6edf3">JSON</text><text x="444" y="86" text-anchor="end" font-size="11" font-family="monospace" fill="#7d8590">2%</text><rect x="272" y="105" width="11" height="11" rx="2.5" fill="#E22837"/><text x="290" y="114" font-size="12" fill="#e6edf3">mcfunction</text><text x="444" y="114" text-anchor="end" font-size="11" font-family="monospace" fill="#7d8590">2%</text><rect x="272" y="133" width="11" height="11" rx="2.5" fill="#563d7c"/><text x="290" y="142" font-size="12" fill="#e6edf3">CSS</text><text x="444" y="142" text-anchor="end" font-size="11" font-family="monospace" fill="#7d8590">1%</text><rect x="272" y="161" width="11" height="11" rx="2.5" fill="#083fa1"/><text x="290" y="170" font-size="12" fill="#e6edf3">Markdown</text><text x="444" y="170" text-anchor="end" font-size="11" font-family="monospace" fill="#7d8590">1%</text><rect x="272" y="189" width="11" height="11" rx="2.5" fill="#8b949e"/><text x="290" y="198" font-size="12" fill="#e6edf3">Other</text><text x="444" y="198" text-anchor="end" font-size="11" font-family="monospace" fill="#7d8590">2%</text></svg>