<svg xmlns="http://www.w3.org/2000/svg" viewBox="0 0 460 290" width="460" height="290" font-family="-apple-system,BlinkMacSystemFont,'Segoe UI',Helvetica,Arial,sans-serif"><rect width="460" height="290" rx="14" fill="#161b22"/><path d="M132.00 41.00 A104 104 0 1 1 50.04 80.98 L87.87 110.53 A56 56 0 1 0 132.00 89.00 Z" fill="#b07219"><title>Java: 85.6% (86%)</title></path><path d="M50.04 80.98 A104 104 0 0 1 78.67 55.71 L103.29 96.92 A56 56 0 0 0 87.87 110.53 Z" fill="#f1e05a"><title>JavaScript: 5.9% (6%)</title></path><path d="M78.67 55.71 A104 104 0 0 1 91.79 49.09 L110.35 93.36 A56 56 0 0 0 103.29 96.92 Z" fill="#292929"><title>JSON: 2.3% (2%)</title></path><path d="M91.79 49.09 A104 104 0 0 1 101.35 45.62 L115.49 91.49 A56 56 0 0 0 110.35 93.36 Z" fill="#E22837"><title>mcfunction: 1.6% (2%)</title></path><path d="M101.35 45.62 A104 104 0 0 1 109.31 43.51 L119.78 90.35 A56 56 0 0 0 115.49 91.49 Z" fill="#563d7c"><title>CSS: 1.3% (1%)</title></path><path d="M109.31 43.51 A104 104 0 0 1 116.06 42.23 L123.42 89.66 A56 56 0 0 0 119.78 90.35 Z" fill="#083fa1"><title>Markdown: 1.1% (1%)</title></path><path d="M116.06 42.23 A104 104 0 0 1 132.00 41.00 L132.00 89.00 A56 56 0 0 0 123.42 89.66 Z" fill="#8b949e"><title>Other: 2.4% (2%)</title></path><rect x="272" y="21" width="11" height="11" rx="2.5" fill="#b07219"/><text x="290" y="30" font-size="12" fill="#e6edf3">Java</text><text x="444" y="30" text-anchor="end" font-size="11" font-family="monospace" fill="#7d8590">86%</text><rect x="272" y="49" width="11" height="11" rx="2.5" fill="#f1e05a"/><text x="290" y="58" font-size="12" fill="#e6edf3">JavaScript</text><text x="444" y="58" text-anchor="end" font-size="11" font-family="monospace" fill="#7d8590">6%</text><rect x="272" y="77" width="11" height="11" rx="2.5" fill="#292929"/><text x="290" y="86" font-size="12" fill="#e6edf3">JSON</text><text x="444" y="86" text-anchor="end" font-size="11" font-family="monospace" fill="#7d8590">2%</text><rect x="272" y="105" width="11" height="11" rx="2.5" fill="#E22837"/><text x="290" y="114" font-size="12" fill="#e6edf3">mcfunction</text><text x="444" y="114" text-anchor="end" font-size="11" font-family="monospace" fill="#7d8590">2%</text><rect x="272" y="133" width="11" height="11" rx="2.5" fill="#563d7c"/><text x="290" y="142" font-size="12" fill="#e6edf3">CSS</text><text x="444" y="142" text-anchor="end" font-size="11" font-family="monospace" fill="#7d8590">1%</text><rect x="272" y="161" width="11" height="11" rx="2.5" fill="#083fa1"/><text x="290" y="170" font-size="12" fill="#e6edf3">Markdown</text><text x="444" y="170" text-anchor="end" font-size="11" font-family="monospace" fill="#7d8590">1%</text><rect x="272" y="189" width="11" height="11" rx="2.5" fill="#8b949e"/><text x="290" y="198" font-size="12" fill="#e6edf3">Other</text><text x="444" y="198" text-anchor="end" font-size="11" font-family="monospace" fill="#7d8590">2%</text></svg>