<svg xmlns="http://www.w3.org/2000/svg" viewBox="0 0 460 290" width="460" height="290" font-family="-apple-system,BlinkMacSystemFont,'Segoe UI',Helvetica,Arial,sans-serif"><rect width="460" height="290" rx="14" fill="#161b22"/><path d="M132.00 41.00 A104 104 0 1 1 73.23 59.20 L100.35 98.80 A56 56 0 1 0 132.00 89.00 Z" fill="#b07219"><title>Java: 90.4% (90%)</title></path><path d="M73.23 59.20 A104 104 0 0 1 86.61 51.43 L107.56 94.62 A56 56 0 0 0 100.35 98.80 Z" fill="#f1e05a"><title>JavaScript: 2.4% (2%)</title></path><path d="M86.61 51.43 A104 104 0 0 1 98.99 46.38 L114.23 91.90 A56 56 0 0 0 107.56 94.62 Z" fill="#292929"><title>JSON: 2.0% (2%)</title></path><path d="M98.99 46.38 A104 104 0 0 1 109.48 43.47 L119.87 90.33 A56 56 0 0 0 114.23 91.90 Z" fill="#E22837"><title>mcfunction: 1.7% (2%)</title></path><path d="M109.48 43.47 A104 104 0 0 1 132.00 41.00 L132.00 89.00 A56 56 0 0 0 119.87 90.33 Z" fill="#8b949e"><title>Other: 3.5% (3%)</title></path><rect x="272" y="21" width="11" height="11" rx="2.5" fill="#b07219"/><text x="290" y="30" font-size="12" fill="#e6edf3">Java</text><text x="444" y="30" text-anchor="end" font-size="11" font-family="monospace" fill="#7d8590">90%</text><rect x="272" y="49" width="11" height="11" rx="2.5" fill="#f1e05a"/><text x="290" y="58" font-size="12" fill="#e6edf3">JavaScript</text><text x="444" y="58" text-anchor="end" font-size="11" font-family="monospace" fill="#7d8590">2%</text><rect x="272" y="77" width="11" height="11" rx="2.5" fill="#292929"/><text x="290" y="86" font-size="12" fill="#e6edf3">JSON</text><text x="444" y="86" text-anchor="end" font-size="11" font-family="monospace" fill="#7d8590">2%</text><rect x="272" y="105" width="11" height="11" rx="2.5" fill="#E22837"/><text x="290" y="114" font-size="12" fill="#e6edf3">mcfunction</text><text x="444" y="114" text-anchor="end" font-size="11" font-family="monospace" fill="#7d8590">2%</text><rect x="272" y="133" width="11" height="11" rx="2.5" fill="#8b949e"/><text x="290" y="142" font-size="12" fill="#e6edf3">Other</text><text x="444" y="142" text-anchor="end" font-size="11" font-family="monospace" fill="#7d8590">3%</text></svg>