<svg xmlns="http://www.w3.org/2000/svg" viewBox="0 0 460 290" width="460" height="290" font-family="-apple-system,BlinkMacSystemFont,'Segoe UI',Helvetica,Arial,sans-serif"><rect width="460" height="290" rx="14" fill="#161b22"/><line x1="18" y1="242" x2="442" y2="242" stroke="#30363d"/><rect x="26.1" y="34.0" width="26.3" height="208.0" rx="3" fill="#f1e05a"><title>JavaScript: 47.6%</title></rect><text x="39.2" y="27.0" text-anchor="middle" font-size="11" font-family="monospace" fill="#e6edf3">47.6%</text><text x="39.2" y="261" text-anchor="middle" font-size="11" fill="#7d8590">JavaScript</text><rect x="68.5" y="117.8" width="26.3" height="124.2" rx="3" fill="#b07219"><title>Java: 28.5%</title></rect><text x="81.6" y="110.8" text-anchor="middle" font-size="11" font-family="monospace" fill="#e6edf3">28.5%</text><text x="81.6" y="261" text-anchor="middle" font-size="11" fill="#7d8590">Java</text><rect x="110.9" y="216.4" width="26.3" height="25.6" rx="3" fill="#292929"><title>JSON: 5.9%</title></rect><text x="124.0" y="209.4" text-anchor="middle" font-size="11" font-family="monospace" fill="#e6edf3">5.9%</text><text x="124.0" y="261" text-anchor="middle" font-size="11" fill="#7d8590">JSON</text><rect x="153.3" y="218.2" width="26.3" height="23.8" rx="3" fill="#563d7c"><title>CSS: 5.5%</title></rect><text x="166.4" y="211.2" text-anchor="middle" font-size="11" font-family="monospace" fill="#e6edf3">5.5%</text><text x="166.4" y="261" text-anchor="middle" font-size="11" fill="#7d8590">CSS</text><rect x="195.7" y="227.4" width="26.3" height="14.6" rx="3" fill="#89e051"><title>Shell: 3.3%</title></rect><text x="208.8" y="220.4" text-anchor="middle" font-size="11" font-family="monospace" fill="#e6edf3">3.3%</text><text x="208.8" y="261" text-anchor="middle" font-size="11" fill="#7d8590">Shell</text><rect x="238.1" y="228.0" width="26.3" height="14.0" rx="3" fill="#083fa1"><title>Markdown: 3.2%</title></rect><text x="251.2" y="221.0" text-anchor="middle" font-size="11" font-family="monospace" fill="#e6edf3">3.2%</text><text x="251.2" y="261" text-anchor="middle" font-size="11" fill="#7d8590">Markdown</text><rect x="280.5" y="233.4" width="26.3" height="8.6" rx="3" fill="#e34c26"><title>HTML: 2.0%</title></rect><text x="293.6" y="226.4" text-anchor="middle" font-size="11" font-family="monospace" fill="#e6edf3">2.0%</text><text x="293.6" y="261" text-anchor="middle" font-size="11" fill="#7d8590">HTML</text><rect x="322.9" y="235.6" width="26.3" height="6.4" rx="3" fill="#8b949e"><title>PowerShell: 1.5%</title></rect><text x="336.0" y="228.6" text-anchor="middle" font-size="11" font-family="monospace" fill="#e6edf3">1.5%</text><text x="336.0" y="261" text-anchor="middle" font-size="11" fill="#7d8590">PowerShell</text><rect x="365.3" y="235.8" width="26.3" height="6.2" rx="3" fill="#F05138"><title>Swift: 1.4%</title></rect><text x="378.4" y="228.8" text-anchor="middle" font-size="11" font-family="monospace" fill="#e6edf3">1.4%</text><text x="378.4" y="261" text-anchor="middle" font-size="11" fill="#7d8590">Swift</text><rect x="407.7" y="236.7" width="26.3" height="5.3" rx="3" fill="#C1F12E"><title>Batchfile: 1.2%</title></rect><text x="420.8" y="229.7" text-anchor="middle" font-size="11" font-family="monospace" fill="#e6edf3">1.2%</text><text x="420.8" y="261" text-anchor="middle" font-size="11" fill="#7d8590">Batchfile</text></svg>