<svg xmlns="http://www.w3.org/2000/svg" viewBox="0 0 460 290" width="460" height="290" font-family="-apple-system,BlinkMacSystemFont,'Segoe UI',Helvetica,Arial,sans-serif"><rect width="460" height="290" rx="14" fill="#161b22"/><path d="M132.00 41.00 A104 104 0 1 1 52.55 77.89 L89.22 108.86 A56 56 0 1 0 132.00 89.00 Z" fill="#b07219"><title>Java: 86.2% (86%)</title></path><path d="M52.55 77.89 A104 104 0 0 1 79.13 55.44 L103.53 96.78 A56 56 0 0 0 89.22 108.86 Z" fill="#f1e05a"><title>JavaScript: 5.3% (5%)</title></path><path d="M79.13 55.44 A104 104 0 0 1 92.28 48.88 L110.61 93.24 A56 56 0 0 0 103.53 96.78 Z" fill="#292929"><title>JSON: 2.3% (2%)</title></path><path d="M92.28 48.88 A104 104 0 0 1 101.93 45.44 L115.81 91.39 A56 56 0 0 0 110.61 93.24 Z" fill="#E22837"><title>mcfunction: 1.6% (2%)</title></path><path d="M101.93 45.44 A104 104 0 0 1 109.35 43.50 L119.80 90.34 A56 56 0 0 0 115.81 91.39 Z" fill="#563d7c"><title>CSS: 1.2% (1%)</title></path><path d="M109.35 43.50 A104 104 0 0 1 116.13 42.22 L123.45 89.66 A56 56 0 0 0 119.80 90.34 Z" fill="#083fa1"><title>Markdown: 1.1% (1%)</title></path><path d="M116.13 42.22 A104 104 0 0 1 132.00 41.00 L132.00 89.00 A56 56 0 0 0 123.45 89.66 Z" fill="#8b949e"><title>Other: 2.4% (2%)</title></path><rect x="272" y="21" width="11" height="11" rx="2.5" fill="#b07219"/><text x="290" y="30" font-size="12" fill="#e6edf3">Java</text><text x="444" y="30" text-anchor="end" font-size="11" font-family="monospace" fill="#7d8590">86%</text><rect x="272" y="49" width="11" height="11" rx="2.5" fill="#f1e05a"/><text x="290" y="58" font-size="12" fill="#e6edf3">JavaScript</text><text x="444" y="58" text-anchor="end" font-size="11" font-family="monospace" fill="#7d8590">5%</text><rect x="272" y="77" width="11" height="11" rx="2.5" fill="#292929"/><text x="290" y="86" font-size="12" fill="#e6edf3">JSON</text><text x="444" y="86" text-anchor="end" font-size="11" font-family="monospace" fill="#7d8590">2%</text><rect x="272" y="105" width="11" height="11" rx="2.5" fill="#E22837"/><text x="290" y="114" font-size="12" fill="#e6edf3">mcfunction</text><text x="444" y="114" text-anchor="end" font-size="11" font-family="monospace" fill="#7d8590">2%</text><rect x="272" y="133" width="11" height="11" rx="2.5" fill="#563d7c"/><text x="290" y="142" font-size="12" fill="#e6edf3">CSS</text><text x="444" y="142" text-anchor="end" font-size="11" font-family="monospace" fill="#7d8590">1%</text><rect x="272" y="161" width="11" height="11" rx="2.5" fill="#083fa1"/><text x="290" y="170" font-size="12" fill="#e6edf3">Markdown</text><text x="444" y="170" text-anchor="end" font-size="11" font-family="monospace" fill="#7d8590">1%</text><rect x="272" y="189" width="11" height="11" rx="2.5" fill="#8b949e"/><text x="290" y="198" font-size="12" fill="#e6edf3">Other</text><text x="444" y="198" text-anchor="end" font-size="11" font-family="monospace" fill="#7d8590">2%</text></svg>