<svg xmlns="http://www.w3.org/2000/svg" viewBox="0 0 460 290" width="460" height="290" font-family="-apple-system,BlinkMacSystemFont,'Segoe UI',Helvetica,Arial,sans-serif"><rect width="460" height="290" rx="14" fill="#161b22"/><line x1="34" y1="246" x2="426" y2="246" stroke="#30363d"/><path d="M34.0 246 L34.0 26.0L99.3 222.6L164.7 240.3L230.0 241.6L295.3 242.2L360.7 242.7L426.0 239.6 L426.0 246 Z" fill="rgba(124,106,247,0.3)"/><path d="M34.0 26.0L99.3 222.6L164.7 240.3L230.0 241.6L295.3 242.2L360.7 242.7L426.0 239.6" fill="none" stroke="#7c6af7" stroke-width="2.5" stroke-linejoin="round"/><circle cx="34.0" cy="26.0" r="3.6" fill="#7c6af7" stroke="#161b22" stroke-width="1.5"><title>Java: 82.4%</title></circle><circle cx="99.3" cy="222.6" r="3.6" fill="#7c6af7" stroke="#161b22" stroke-width="1.5"><title>JavaScript: 8.8%</title></circle><circle cx="164.7" cy="240.3" r="3.6" fill="#7c6af7" stroke="#161b22" stroke-width="1.5"><title>JSON: 2.1%</title></circle><circle cx="230.0" cy="241.6" r="3.6" fill="#7c6af7" stroke="#161b22" stroke-width="1.5"><title>CSS: 1.6%</title></circle><circle cx="295.3" cy="242.2" r="3.6" fill="#7c6af7" stroke="#161b22" stroke-width="1.5"><title>mcfunction: 1.4%</title></circle><circle cx="360.7" cy="242.7" r="3.6" fill="#7c6af7" stroke="#161b22" stroke-width="1.5"><title>Markdown: 1.2%</title></circle><circle cx="426.0" cy="239.6" r="3.6" fill="#7c6af7" stroke="#161b22" stroke-width="1.5"><title>Other: 2.4%</title></circle><text x="34.0" y="265" text-anchor="middle" font-size="11" fill="#7d8590">Java</text><text x="99.3" y="265" text-anchor="middle" font-size="11" fill="#7d8590">JavaScript</text><text x="164.7" y="265" text-anchor="middle" font-size="11" fill="#7d8590">JSON</text><text x="230.0" y="265" text-anchor="middle" font-size="11" fill="#7d8590">CSS</text><text x="295.3" y="265" text-anchor="middle" font-size="11" fill="#7d8590">mcfunction</text><text x="360.7" y="265" text-anchor="middle" font-size="11" fill="#7d8590">Markdown</text><text x="426.0" y="265" text-anchor="middle" font-size="11" fill="#7d8590">Other</text></svg>