<svg xmlns="http://www.w3.org/2000/svg" viewBox="0 0 460 290" width="460" height="290" font-family="-apple-system,BlinkMacSystemFont,'Segoe UI',Helvetica,Arial,sans-serif"><rect width="460" height="290" rx="14" fill="#161b22"/><path d="M132.00 41.00 A104 104 0 1 1 40.52 95.53 L82.74 118.36 A56 56 0 1 0 132.00 89.00 Z" fill="#b07219"><title>Java: 82.9% (83%)</title></path><path d="M40.52 95.53 A104 104 0 0 1 76.81 56.85 L102.28 97.54 A56 56 0 0 0 82.74 118.36 Z" fill="#f1e05a"><title>JavaScript: 8.2% (8%)</title></path><path d="M76.81 56.85 A104 104 0 0 1 89.37 50.14 L109.04 93.92 A56 56 0 0 0 102.28 97.54 Z" fill="#292929"><title>JSON: 2.2% (2%)</title></path><path d="M89.37 50.14 A104 104 0 0 1 99.40 46.24 L114.45 91.82 A56 56 0 0 0 109.04 93.92 Z" fill="#563d7c"><title>CSS: 1.6% (2%)</title></path><path d="M99.40 46.24 A104 104 0 0 1 108.62 43.66 L119.41 90.43 A56 56 0 0 0 114.45 91.82 Z" fill="#E22837"><title>mcfunction: 1.5% (1%)</title></path><path d="M108.62 43.66 A104 104 0 0 1 115.59 42.30 L123.17 89.70 A56 56 0 0 0 119.41 90.43 Z" fill="#083fa1"><title>Markdown: 1.1% (1%)</title></path><path d="M115.59 42.30 A104 104 0 0 1 132.00 41.00 L132.00 89.00 A56 56 0 0 0 123.17 89.70 Z" fill="#8b949e"><title>Other: 2.5% (3%)</title></path><rect x="272" y="21" width="11" height="11" rx="2.5" fill="#b07219"/><text x="290" y="30" font-size="12" fill="#e6edf3">Java</text><text x="444" y="30" text-anchor="end" font-size="11" font-family="monospace" fill="#7d8590">83%</text><rect x="272" y="49" width="11" height="11" rx="2.5" fill="#f1e05a"/><text x="290" y="58" font-size="12" fill="#e6edf3">JavaScript</text><text x="444" y="58" text-anchor="end" font-size="11" font-family="monospace" fill="#7d8590">8%</text><rect x="272" y="77" width="11" height="11" rx="2.5" fill="#292929"/><text x="290" y="86" font-size="12" fill="#e6edf3">JSON</text><text x="444" y="86" text-anchor="end" font-size="11" font-family="monospace" fill="#7d8590">2%</text><rect x="272" y="105" width="11" height="11" rx="2.5" fill="#563d7c"/><text x="290" y="114" font-size="12" fill="#e6edf3">CSS</text><text x="444" y="114" text-anchor="end" font-size="11" font-family="monospace" fill="#7d8590">2%</text><rect x="272" y="133" width="11" height="11" rx="2.5" fill="#E22837"/><text x="290" y="142" font-size="12" fill="#e6edf3">mcfunction</text><text x="444" y="142" text-anchor="end" font-size="11" font-family="monospace" fill="#7d8590">1%</text><rect x="272" y="161" width="11" height="11" rx="2.5" fill="#083fa1"/><text x="290" y="170" font-size="12" fill="#e6edf3">Markdown</text><text x="444" y="170" text-anchor="end" font-size="11" font-family="monospace" fill="#7d8590">1%</text><rect x="272" y="189" width="11" height="11" rx="2.5" fill="#8b949e"/><text x="290" y="198" font-size="12" fill="#e6edf3">Other</text><text x="444" y="198" text-anchor="end" font-size="11" font-family="monospace" fill="#7d8590">3%</text></svg>