<svg xmlns="http://www.w3.org/2000/svg" viewBox="0 0 460 290" width="460" height="290" font-family="-apple-system,BlinkMacSystemFont,'Segoe UI',Helvetica,Arial,sans-serif"><rect width="460" height="290" rx="14" fill="#161b22"/><path d="M132.00 41.00 A104 104 0 1 1 51.96 78.60 L88.90 109.25 A56 56 0 1 0 132.00 89.00 Z" fill="#b07219"><title>Java: 86.0% (86%)</title></path><path d="M51.96 78.60 A104 104 0 0 1 78.89 55.58 L103.40 96.85 A56 56 0 0 0 88.90 109.25 Z" fill="#f1e05a"><title>JavaScript: 5.4% (5%)</title></path><path d="M78.89 55.58 A104 104 0 0 1 92.01 49.00 L110.47 93.31 A56 56 0 0 0 103.40 96.85 Z" fill="#292929"><title>JSON: 2.2% (2%)</title></path><path d="M92.01 49.00 A104 104 0 0 1 101.63 45.53 L115.65 91.44 A56 56 0 0 0 110.47 93.31 Z" fill="#E22837"><title>mcfunction: 1.6% (2%)</title></path><path d="M101.63 45.53 A104 104 0 0 1 109.21 43.53 L119.73 90.36 A56 56 0 0 0 115.65 91.44 Z" fill="#563d7c"><title>CSS: 1.2% (1%)</title></path><path d="M109.21 43.53 A104 104 0 0 1 115.97 42.24 L123.37 89.67 A56 56 0 0 0 119.73 90.36 Z" fill="#083fa1"><title>Markdown: 1.1% (1%)</title></path><path d="M115.97 42.24 A104 104 0 0 1 132.00 41.00 L132.00 89.00 A56 56 0 0 0 123.37 89.67 Z" fill="#8b949e"><title>Other: 2.5% (2%)</title></path><rect x="272" y="21" width="11" height="11" rx="2.5" fill="#b07219"/><text x="290" y="30" font-size="12" fill="#e6edf3">Java</text><text x="444" y="30" text-anchor="end" font-size="11" font-family="monospace" fill="#7d8590">86%</text><rect x="272" y="49" width="11" height="11" rx="2.5" fill="#f1e05a"/><text x="290" y="58" font-size="12" fill="#e6edf3">JavaScript</text><text x="444" y="58" text-anchor="end" font-size="11" font-family="monospace" fill="#7d8590">5%</text><rect x="272" y="77" width="11" height="11" rx="2.5" fill="#292929"/><text x="290" y="86" font-size="12" fill="#e6edf3">JSON</text><text x="444" y="86" text-anchor="end" font-size="11" font-family="monospace" fill="#7d8590">2%</text><rect x="272" y="105" width="11" height="11" rx="2.5" fill="#E22837"/><text x="290" y="114" font-size="12" fill="#e6edf3">mcfunction</text><text x="444" y="114" text-anchor="end" font-size="11" font-family="monospace" fill="#7d8590">2%</text><rect x="272" y="133" width="11" height="11" rx="2.5" fill="#563d7c"/><text x="290" y="142" font-size="12" fill="#e6edf3">CSS</text><text x="444" y="142" text-anchor="end" font-size="11" font-family="monospace" fill="#7d8590">1%</text><rect x="272" y="161" width="11" height="11" rx="2.5" fill="#083fa1"/><text x="290" y="170" font-size="12" fill="#e6edf3">Markdown</text><text x="444" y="170" text-anchor="end" font-size="11" font-family="monospace" fill="#7d8590">1%</text><rect x="272" y="189" width="11" height="11" rx="2.5" fill="#8b949e"/><text x="290" y="198" font-size="12" fill="#e6edf3">Other</text><text x="444" y="198" text-anchor="end" font-size="11" font-family="monospace" fill="#7d8590">2%</text></svg>