<svg xmlns="http://www.w3.org/2000/svg" viewBox="0 0 460 290" width="460" height="290" font-family="-apple-system,BlinkMacSystemFont,'Segoe UI',Helvetica,Arial,sans-serif"><rect width="460" height="290" rx="14" fill="#161b22"/><path d="M132.00 41.00 A104 104 0 1 1 41.20 94.29 L83.11 117.69 A56 56 0 1 0 132.00 89.00 Z" fill="#b07219"><title>Java: 83.1% (83%)</title></path><path d="M41.20 94.29 A104 104 0 0 1 77.39 56.49 L102.59 97.34 A56 56 0 0 0 83.11 117.69 Z" fill="#f1e05a"><title>JavaScript: 8.1% (8%)</title></path><path d="M77.39 56.49 A104 104 0 0 1 89.76 49.96 L109.26 93.83 A56 56 0 0 0 102.59 97.34 Z" fill="#292929"><title>JSON: 2.1% (2%)</title></path><path d="M89.76 49.96 A104 104 0 0 1 99.64 46.16 L114.57 91.78 A56 56 0 0 0 109.26 93.83 Z" fill="#563d7c"><title>CSS: 1.6% (2%)</title></path><path d="M99.64 46.16 A104 104 0 0 1 108.70 43.64 L119.46 90.42 A56 56 0 0 0 114.57 91.78 Z" fill="#E22837"><title>mcfunction: 1.4% (1%)</title></path><path d="M108.70 43.64 A104 104 0 0 1 116.64 42.14 L123.73 89.61 A56 56 0 0 0 119.46 90.42 Z" fill="#083fa1"><title>Markdown: 1.2% (1%)</title></path><path d="M116.64 42.14 A104 104 0 0 1 132.00 41.00 L132.00 89.00 A56 56 0 0 0 123.73 89.61 Z" fill="#8b949e"><title>Other: 2.4% (2%)</title></path><rect x="272" y="21" width="11" height="11" rx="2.5" fill="#b07219"/><text x="290" y="30" font-size="12" fill="#e6edf3">Java</text><text x="444" y="30" text-anchor="end" font-size="11" font-family="monospace" fill="#7d8590">83%</text><rect x="272" y="49" width="11" height="11" rx="2.5" fill="#f1e05a"/><text x="290" y="58" font-size="12" fill="#e6edf3">JavaScript</text><text x="444" y="58" text-anchor="end" font-size="11" font-family="monospace" fill="#7d8590">8%</text><rect x="272" y="77" width="11" height="11" rx="2.5" fill="#292929"/><text x="290" y="86" font-size="12" fill="#e6edf3">JSON</text><text x="444" y="86" text-anchor="end" font-size="11" font-family="monospace" fill="#7d8590">2%</text><rect x="272" y="105" width="11" height="11" rx="2.5" fill="#563d7c"/><text x="290" y="114" font-size="12" fill="#e6edf3">CSS</text><text x="444" y="114" text-anchor="end" font-size="11" font-family="monospace" fill="#7d8590">2%</text><rect x="272" y="133" width="11" height="11" rx="2.5" fill="#E22837"/><text x="290" y="142" font-size="12" fill="#e6edf3">mcfunction</text><text x="444" y="142" text-anchor="end" font-size="11" font-family="monospace" fill="#7d8590">1%</text><rect x="272" y="161" width="11" height="11" rx="2.5" fill="#083fa1"/><text x="290" y="170" font-size="12" fill="#e6edf3">Markdown</text><text x="444" y="170" text-anchor="end" font-size="11" font-family="monospace" fill="#7d8590">1%</text><rect x="272" y="189" width="11" height="11" rx="2.5" fill="#8b949e"/><text x="290" y="198" font-size="12" fill="#e6edf3">Other</text><text x="444" y="198" text-anchor="end" font-size="11" font-family="monospace" fill="#7d8590">2%</text></svg>