<svg xmlns="http://www.w3.org/2000/svg" viewBox="0 0 460 290" width="460" height="290" font-family="-apple-system,BlinkMacSystemFont,'Segoe UI',Helvetica,Arial,sans-serif"><rect width="460" height="290" rx="14" fill="#161b22"/><path d="M132.00 41.00 A104 104 0 1 1 32.20 115.74 L78.26 129.24 A56 56 0 1 0 132.00 89.00 Z" fill="#b07219"><title>Java: 79.5% (80%)</title></path><path d="M32.20 115.74 A104 104 0 0 1 71.45 60.45 L99.39 99.47 A56 56 0 0 0 78.26 129.24 Z" fill="#f1e05a"><title>JavaScript: 10.6% (11%)</title></path><path d="M71.45 60.45 A104 104 0 0 1 83.18 53.17 L105.71 95.55 A56 56 0 0 0 99.39 99.47 Z" fill="#292929"><title>JSON: 2.1% (2%)</title></path><path d="M83.18 53.17 A104 104 0 0 1 93.36 48.45 L111.19 93.01 A56 56 0 0 0 105.71 95.55 Z" fill="#563d7c"><title>CSS: 1.7% (2%)</title></path><path d="M93.36 48.45 A104 104 0 0 1 102.11 45.39 L115.91 91.36 A56 56 0 0 0 111.19 93.01 Z" fill="#E22837"><title>mcfunction: 1.4% (1%)</title></path><path d="M102.11 45.39 A104 104 0 0 1 110.36 43.28 L120.35 90.23 A56 56 0 0 0 115.91 91.36 Z" fill="#083fa1"><title>Markdown: 1.3% (1%)</title></path><path d="M110.36 43.28 A104 104 0 0 1 132.00 41.00 L132.00 89.00 A56 56 0 0 0 120.35 90.23 Z" fill="#8b949e"><title>Other: 3.3% (3%)</title></path><rect x="272" y="21" width="11" height="11" rx="2.5" fill="#b07219"/><text x="290" y="30" font-size="12" fill="#e6edf3">Java</text><text x="444" y="30" text-anchor="end" font-size="11" font-family="monospace" fill="#7d8590">80%</text><rect x="272" y="49" width="11" height="11" rx="2.5" fill="#f1e05a"/><text x="290" y="58" font-size="12" fill="#e6edf3">JavaScript</text><text x="444" y="58" text-anchor="end" font-size="11" font-family="monospace" fill="#7d8590">11%</text><rect x="272" y="77" width="11" height="11" rx="2.5" fill="#292929"/><text x="290" y="86" font-size="12" fill="#e6edf3">JSON</text><text x="444" y="86" text-anchor="end" font-size="11" font-family="monospace" fill="#7d8590">2%</text><rect x="272" y="105" width="11" height="11" rx="2.5" fill="#563d7c"/><text x="290" y="114" font-size="12" fill="#e6edf3">CSS</text><text x="444" y="114" text-anchor="end" font-size="11" font-family="monospace" fill="#7d8590">2%</text><rect x="272" y="133" width="11" height="11" rx="2.5" fill="#E22837"/><text x="290" y="142" font-size="12" fill="#e6edf3">mcfunction</text><text x="444" y="142" text-anchor="end" font-size="11" font-family="monospace" fill="#7d8590">1%</text><rect x="272" y="161" width="11" height="11" rx="2.5" fill="#083fa1"/><text x="290" y="170" font-size="12" fill="#e6edf3">Markdown</text><text x="444" y="170" text-anchor="end" font-size="11" font-family="monospace" fill="#7d8590">1%</text><rect x="272" y="189" width="11" height="11" rx="2.5" fill="#8b949e"/><text x="290" y="198" font-size="12" fill="#e6edf3">Other</text><text x="444" y="198" text-anchor="end" font-size="11" font-family="monospace" fill="#7d8590">3%</text></svg>