<svg xmlns="http://www.w3.org/2000/svg" viewBox="0 0 460 290" width="460" height="290" font-family="-apple-system,BlinkMacSystemFont,'Segoe UI',Helvetica,Arial,sans-serif"><rect width="460" height="290" rx="14" fill="#161b22"/><line x1="18" y1="242" x2="442" y2="242" stroke="#30363d"/><rect x="29.5" y="34.0" width="37.6" height="208.0" rx="3" fill="#b07219"><title>Java: 82.8%</title></rect><text x="48.3" y="27.0" text-anchor="middle" font-size="11" font-family="monospace" fill="#e6edf3">82.8%</text><text x="48.3" y="261" text-anchor="middle" font-size="11" fill="#7d8590">Java</text><rect x="90.1" y="221.3" width="37.6" height="20.7" rx="3" fill="#f1e05a"><title>JavaScript: 8.2%</title></rect><text x="108.9" y="214.3" text-anchor="middle" font-size="11" font-family="monospace" fill="#e6edf3">8.2%</text><text x="108.9" y="261" text-anchor="middle" font-size="11" fill="#7d8590">JavaScript</text><rect x="150.7" y="236.5" width="37.6" height="5.5" rx="3" fill="#292929"><title>JSON: 2.2%</title></rect><text x="169.4" y="229.5" text-anchor="middle" font-size="11" font-family="monospace" fill="#e6edf3">2.2%</text><text x="169.4" y="261" text-anchor="middle" font-size="11" fill="#7d8590">JSON</text><rect x="211.2" y="237.8" width="37.6" height="4.2" rx="3" fill="#563d7c"><title>CSS: 1.7%</title></rect><text x="230.0" y="230.8" text-anchor="middle" font-size="11" font-family="monospace" fill="#e6edf3">1.7%</text><text x="230.0" y="261" text-anchor="middle" font-size="11" fill="#7d8590">CSS</text><rect x="271.8" y="238.3" width="37.6" height="3.7" rx="3" fill="#E22837"><title>mcfunction: 1.5%</title></rect><text x="290.6" y="231.3" text-anchor="middle" font-size="11" font-family="monospace" fill="#e6edf3">1.5%</text><text x="290.6" y="261" text-anchor="middle" font-size="11" fill="#7d8590">mcfunction</text><rect x="332.4" y="239.0" width="37.6" height="3.0" rx="3" fill="#083fa1"><title>Markdown: 1.1%</title></rect><text x="351.1" y="232.0" text-anchor="middle" font-size="11" font-family="monospace" fill="#e6edf3">1.1%</text><text x="351.1" y="261" text-anchor="middle" font-size="11" fill="#7d8590">Markdown</text><rect x="392.9" y="235.6" width="37.6" height="6.4" rx="3" fill="#8b949e"><title>Other: 2.5%</title></rect><text x="411.7" y="228.6" text-anchor="middle" font-size="11" font-family="monospace" fill="#e6edf3">2.5%</text><text x="411.7" y="261" text-anchor="middle" font-size="11" fill="#7d8590">Other</text></svg>