<svg xmlns="http://www.w3.org/2000/svg" viewBox="0 0 460 298" width="460" height="298" font-family="-apple-system,BlinkMacSystemFont,'Segoe UI',Helvetica,Arial,sans-serif"><rect width="460" height="298" rx="14" fill="#161b22"/><text x="112" y="33" text-anchor="end" font-size="12" fill="#e6edf3">JavaScript</text><rect x="124" y="23" width="262" height="12" rx="6" fill="rgba(255,255,255,0.06)"/><rect x="124" y="23" width="262.0" height="12" rx="6" fill="#f1e05a"><title>JavaScript: 60.0%</title></rect><text x="396" y="33" font-size="11" font-family="monospace" fill="#7d8590">60.0%</text><text x="112" y="63" text-anchor="end" font-size="12" fill="#e6edf3">CSS</text><rect x="124" y="53" width="262" height="12" rx="6" fill="rgba(255,255,255,0.06)"/><rect x="124" y="53" width="59.6" height="12" rx="6" fill="#563d7c"><title>CSS: 13.7%</title></rect><text x="396" y="63" font-size="11" font-family="monospace" fill="#7d8590">13.7%</text><text x="112" y="93" text-anchor="end" font-size="12" fill="#e6edf3">Java</text><rect x="124" y="83" width="262" height="12" rx="6" fill="rgba(255,255,255,0.06)"/><rect x="124" y="83" width="27.2" height="12" rx="6" fill="#b07219"><title>Java: 6.2%</title></rect><text x="396" y="93" font-size="11" font-family="monospace" fill="#7d8590">6.2%</text><text x="112" y="123" text-anchor="end" font-size="12" fill="#e6edf3">HTML</text><rect x="124" y="113" width="262" height="12" rx="6" fill="rgba(255,255,255,0.06)"/><rect x="124" y="113" width="19.6" height="12" rx="6" fill="#e34c26"><title>HTML: 4.5%</title></rect><text x="396" y="123" font-size="11" font-family="monospace" fill="#7d8590">4.5%</text><text x="112" y="153" text-anchor="end" font-size="12" fill="#e6edf3">Shell</text><rect x="124" y="143" width="262" height="12" rx="6" fill="rgba(255,255,255,0.06)"/><rect x="124" y="143" width="17.1" height="12" rx="6" fill="#89e051"><title>Shell: 3.9%</title></rect><text x="396" y="153" font-size="11" font-family="monospace" fill="#7d8590">3.9%</text><text x="112" y="183" text-anchor="end" font-size="12" fill="#e6edf3">Swift</text><rect x="124" y="173" width="262" height="12" rx="6" fill="rgba(255,255,255,0.06)"/><rect x="124" y="173" width="15.6" height="12" rx="6" fill="#F05138"><title>Swift: 3.6%</title></rect><text x="396" y="183" font-size="11" font-family="monospace" fill="#7d8590">3.6%</text><text x="112" y="213" text-anchor="end" font-size="12" fill="#e6edf3">Batchfile</text><rect x="124" y="203" width="262" height="12" rx="6" fill="rgba(255,255,255,0.06)"/><rect x="124" y="203" width="12.1" height="12" rx="6" fill="#C1F12E"><title>Batchfile: 2.8%</title></rect><text x="396" y="213" font-size="11" font-family="monospace" fill="#7d8590">2.8%</text><text x="112" y="243" text-anchor="end" font-size="12" fill="#e6edf3">Markdown</text><rect x="124" y="233" width="262" height="12" rx="6" fill="rgba(255,255,255,0.06)"/><rect x="124" y="233" width="8.5" height="12" rx="6" fill="#083fa1"><title>Markdown: 1.9%</title></rect><text x="396" y="243" font-size="11" font-family="monospace" fill="#7d8590">1.9%</text><text x="112" y="273" text-anchor="end" font-size="12" fill="#e6edf3">Other</text><rect x="124" y="263" width="262" height="12" rx="6" fill="rgba(255,255,255,0.06)"/><rect x="124" y="263" width="14.9" height="12" rx="6" fill="#8b949e"><title>Other: 3.4%</title></rect><text x="396" y="273" font-size="11" font-family="monospace" fill="#7d8590">3.4%</text></svg>