<svg xmlns="http://www.w3.org/2000/svg" viewBox="0 0 460 290" width="460" height="290" font-family="-apple-system,BlinkMacSystemFont,'Segoe UI',Helvetica,Arial,sans-serif"><rect width="460" height="290" rx="14" fill="#161b22"/><path d="M132.00 41.00 A104 104 0 1 1 40.28 95.98 L82.61 118.61 A56 56 0 1 0 132.00 89.00 Z" fill="#b07219"><title>Java: 82.8% (83%)</title></path><path d="M40.28 95.98 A104 104 0 0 1 76.85 56.83 L102.30 97.52 A56 56 0 0 0 82.61 118.61 Z" fill="#f1e05a"><title>JavaScript: 8.3% (8%)</title></path><path d="M76.85 56.83 A104 104 0 0 1 89.56 50.05 L109.15 93.87 A56 56 0 0 0 102.30 97.52 Z" fill="#292929"><title>JSON: 2.2% (2%)</title></path><path d="M89.56 50.05 A104 104 0 0 1 99.71 46.14 L114.61 91.77 A56 56 0 0 0 109.15 93.87 Z" fill="#563d7c"><title>CSS: 1.7% (2%)</title></path><path d="M99.71 46.14 A104 104 0 0 1 109.04 43.57 L119.64 90.38 A56 56 0 0 0 114.61 91.77 Z" fill="#E22837"><title>mcfunction: 1.5% (1%)</title></path><path d="M109.04 43.57 A104 104 0 0 1 116.09 42.22 L123.43 89.66 A56 56 0 0 0 119.64 90.38 Z" fill="#083fa1"><title>Markdown: 1.1% (1%)</title></path><path d="M116.09 42.22 A104 104 0 0 1 132.00 41.00 L132.00 89.00 A56 56 0 0 0 123.43 89.66 Z" fill="#8b949e"><title>Other: 2.4% (2%)</title></path><rect x="272" y="21" width="11" height="11" rx="2.5" fill="#b07219"/><text x="290" y="30" font-size="12" fill="#e6edf3">Java</text><text x="444" y="30" text-anchor="end" font-size="11" font-family="monospace" fill="#7d8590">83%</text><rect x="272" y="49" width="11" height="11" rx="2.5" fill="#f1e05a"/><text x="290" y="58" font-size="12" fill="#e6edf3">JavaScript</text><text x="444" y="58" text-anchor="end" font-size="11" font-family="monospace" fill="#7d8590">8%</text><rect x="272" y="77" width="11" height="11" rx="2.5" fill="#292929"/><text x="290" y="86" font-size="12" fill="#e6edf3">JSON</text><text x="444" y="86" text-anchor="end" font-size="11" font-family="monospace" fill="#7d8590">2%</text><rect x="272" y="105" width="11" height="11" rx="2.5" fill="#563d7c"/><text x="290" y="114" font-size="12" fill="#e6edf3">CSS</text><text x="444" y="114" text-anchor="end" font-size="11" font-family="monospace" fill="#7d8590">2%</text><rect x="272" y="133" width="11" height="11" rx="2.5" fill="#E22837"/><text x="290" y="142" font-size="12" fill="#e6edf3">mcfunction</text><text x="444" y="142" text-anchor="end" font-size="11" font-family="monospace" fill="#7d8590">1%</text><rect x="272" y="161" width="11" height="11" rx="2.5" fill="#083fa1"/><text x="290" y="170" font-size="12" fill="#e6edf3">Markdown</text><text x="444" y="170" text-anchor="end" font-size="11" font-family="monospace" fill="#7d8590">1%</text><rect x="272" y="189" width="11" height="11" rx="2.5" fill="#8b949e"/><text x="290" y="198" font-size="12" fill="#e6edf3">Other</text><text x="444" y="198" text-anchor="end" font-size="11" font-family="monospace" fill="#7d8590">2%</text></svg>