<svg xmlns="http://www.w3.org/2000/svg" viewBox="0 0 460 268" width="460" height="268" font-family="-apple-system,BlinkMacSystemFont,'Segoe UI',Helvetica,Arial,sans-serif"><rect width="460" height="268" rx="14" fill="#161b22"/><text x="112" y="33" text-anchor="end" font-size="12" fill="#e6edf3">Java</text><rect x="124" y="23" width="262" height="12" rx="6" fill="rgba(255,255,255,0.06)"/><rect x="124" y="23" width="262.0" height="12" rx="6" fill="#b07219"><title>Java: 86.3%</title></rect><text x="396" y="33" font-size="11" font-family="monospace" fill="#7d8590">86.3%</text><text x="112" y="63" text-anchor="end" font-size="12" fill="#e6edf3">JavaScript</text><rect x="124" y="53" width="262" height="12" rx="6" fill="rgba(255,255,255,0.06)"/><rect x="124" y="53" width="21.0" height="12" rx="6" fill="#f1e05a"><title>JavaScript: 6.9%</title></rect><text x="396" y="63" font-size="11" font-family="monospace" fill="#7d8590">6.9%</text><text x="112" y="93" text-anchor="end" font-size="12" fill="#e6edf3">mcfunction</text><rect x="124" y="83" width="262" height="12" rx="6" fill="rgba(255,255,255,0.06)"/><rect x="124" y="83" width="4.9" height="12" rx="6" fill="#E22837"><title>mcfunction: 1.6%</title></rect><text x="396" y="93" font-size="11" font-family="monospace" fill="#7d8590">1.6%</text><text x="112" y="123" text-anchor="end" font-size="12" fill="#e6edf3">CSS</text><rect x="124" y="113" width="262" height="12" rx="6" fill="rgba(255,255,255,0.06)"/><rect x="124" y="113" width="4.8" height="12" rx="6" fill="#563d7c"><title>CSS: 1.6%</title></rect><text x="396" y="123" font-size="11" font-family="monospace" fill="#7d8590">1.6%</text><text x="112" y="153" text-anchor="end" font-size="12" fill="#e6edf3">Markdown</text><rect x="124" y="143" width="262" height="12" rx="6" fill="rgba(255,255,255,0.06)"/><rect x="124" y="143" width="3.3" height="12" rx="6" fill="#083fa1"><title>Markdown: 1.1%</title></rect><text x="396" y="153" font-size="11" font-family="monospace" fill="#7d8590">1.1%</text><text x="112" y="183" text-anchor="end" font-size="12" fill="#e6edf3">Common Lisp</text><rect x="124" y="173" width="262" height="12" rx="6" fill="rgba(255,255,255,0.06)"/><rect x="124" y="173" width="3.0" height="12" rx="6" fill="#3fb68b"><title>Common Lisp: 0.2%</title></rect><text x="396" y="183" font-size="11" font-family="monospace" fill="#7d8590">0.2%</text><text x="112" y="213" text-anchor="end" font-size="12" fill="#e6edf3">NewLisp</text><rect x="124" y="203" width="262" height="12" rx="6" fill="rgba(255,255,255,0.06)"/><rect x="124" y="203" width="3.0" height="12" rx="6" fill="#87AED7"><title>NewLisp: &lt;0.1%</title></rect><text x="396" y="213" font-size="11" font-family="monospace" fill="#7d8590">&lt;0.1%</text><text x="112" y="243" text-anchor="end" font-size="12" fill="#e6edf3">Other</text><rect x="124" y="233" width="262" height="12" rx="6" fill="rgba(255,255,255,0.06)"/><rect x="124" y="233" width="7.0" height="12" rx="6" fill="#8b949e"><title>Other: 2.3%</title></rect><text x="396" y="243" font-size="11" font-family="monospace" fill="#7d8590">2.3%</text></svg>