<svg xmlns="http://www.w3.org/2000/svg" viewBox="0 0 460 238" width="460" height="238" font-family="-apple-system,BlinkMacSystemFont,'Segoe UI',Helvetica,Arial,sans-serif"><rect width="460" height="238" rx="14" fill="#161b22"/><text x="112" y="33" text-anchor="end" font-size="12" fill="#e6edf3">Java</text><rect x="124" y="23" width="262" height="12" rx="6" fill="rgba(255,255,255,0.06)"/><rect x="124" y="23" width="262.0" height="12" rx="6" fill="#b07219"><title>Java: 82.7%</title></rect><text x="396" y="33" font-size="11" font-family="monospace" fill="#7d8590">82.7%</text><text x="112" y="63" text-anchor="end" font-size="12" fill="#e6edf3">JavaScript</text><rect x="124" y="53" width="262" height="12" rx="6" fill="rgba(255,255,255,0.06)"/><rect x="124" y="53" width="26.5" height="12" rx="6" fill="#f1e05a"><title>JavaScript: 8.4%</title></rect><text x="396" y="63" font-size="11" font-family="monospace" fill="#7d8590">8.4%</text><text x="112" y="93" text-anchor="end" font-size="12" fill="#e6edf3">JSON</text><rect x="124" y="83" width="262" height="12" rx="6" fill="rgba(255,255,255,0.06)"/><rect x="124" y="83" width="7.0" height="12" rx="6" fill="#292929"><title>JSON: 2.2%</title></rect><text x="396" y="93" font-size="11" font-family="monospace" fill="#7d8590">2.2%</text><text x="112" y="123" text-anchor="end" font-size="12" fill="#e6edf3">CSS</text><rect x="124" y="113" width="262" height="12" rx="6" fill="rgba(255,255,255,0.06)"/><rect x="124" y="113" width="5.3" height="12" rx="6" fill="#563d7c"><title>CSS: 1.7%</title></rect><text x="396" y="123" font-size="11" font-family="monospace" fill="#7d8590">1.7%</text><text x="112" y="153" text-anchor="end" font-size="12" fill="#e6edf3">mcfunction</text><rect x="124" y="143" width="262" height="12" rx="6" fill="rgba(255,255,255,0.06)"/><rect x="124" y="143" width="4.7" height="12" rx="6" fill="#E22837"><title>mcfunction: 1.5%</title></rect><text x="396" y="153" font-size="11" font-family="monospace" fill="#7d8590">1.5%</text><text x="112" y="183" text-anchor="end" font-size="12" fill="#e6edf3">Markdown</text><rect x="124" y="173" width="262" height="12" rx="6" fill="rgba(255,255,255,0.06)"/><rect x="124" y="173" width="3.5" height="12" rx="6" fill="#083fa1"><title>Markdown: 1.1%</title></rect><text x="396" y="183" font-size="11" font-family="monospace" fill="#7d8590">1.1%</text><text x="112" y="213" text-anchor="end" font-size="12" fill="#e6edf3">Other</text><rect x="124" y="203" width="262" height="12" rx="6" fill="rgba(255,255,255,0.06)"/><rect x="124" y="203" width="7.8" height="12" rx="6" fill="#8b949e"><title>Other: 2.5%</title></rect><text x="396" y="213" font-size="11" font-family="monospace" fill="#7d8590">2.5%</text></svg>