<svg xmlns="http://www.w3.org/2000/svg" viewBox="0 0 460 290" width="460" height="290" font-family="-apple-system,BlinkMacSystemFont,'Segoe UI',Helvetica,Arial,sans-serif"><rect width="460" height="290" rx="14" fill="#161b22"/><line x1="34" y1="246" x2="426" y2="246" stroke="#30363d"/><path d="M34.0 246 L34.0 26.0L77.6 114.6L121.1 218.9L164.7 220.8L208.2 230.6L251.8 231.2L295.3 236.9L338.9 239.3L382.4 239.4L426.0 240.4 L426.0 246 Z" fill="rgba(124,106,247,0.3)"/><path d="M34.0 26.0L77.6 114.6L121.1 218.9L164.7 220.8L208.2 230.6L251.8 231.2L295.3 236.9L338.9 239.3L382.4 239.4L426.0 240.4" fill="none" stroke="#7c6af7" stroke-width="2.5" stroke-linejoin="round"/><circle cx="34.0" cy="26.0" r="3.6" fill="#7c6af7" stroke="#161b22" stroke-width="1.5"><title>JavaScript: 47.6%</title></circle><circle cx="77.6" cy="114.6" r="3.6" fill="#7c6af7" stroke="#161b22" stroke-width="1.5"><title>Java: 28.5%</title></circle><circle cx="121.1" cy="218.9" r="3.6" fill="#7c6af7" stroke="#161b22" stroke-width="1.5"><title>JSON: 5.9%</title></circle><circle cx="164.7" cy="220.8" r="3.6" fill="#7c6af7" stroke="#161b22" stroke-width="1.5"><title>CSS: 5.5%</title></circle><circle cx="208.2" cy="230.6" r="3.6" fill="#7c6af7" stroke="#161b22" stroke-width="1.5"><title>Shell: 3.3%</title></circle><circle cx="251.8" cy="231.2" r="3.6" fill="#7c6af7" stroke="#161b22" stroke-width="1.5"><title>Markdown: 3.2%</title></circle><circle cx="295.3" cy="236.9" r="3.6" fill="#7c6af7" stroke="#161b22" stroke-width="1.5"><title>HTML: 2.0%</title></circle><circle cx="338.9" cy="239.3" r="3.6" fill="#7c6af7" stroke="#161b22" stroke-width="1.5"><title>PowerShell: 1.5%</title></circle><circle cx="382.4" cy="239.4" r="3.6" fill="#7c6af7" stroke="#161b22" stroke-width="1.5"><title>Swift: 1.4%</title></circle><circle cx="426.0" cy="240.4" r="3.6" fill="#7c6af7" stroke="#161b22" stroke-width="1.5"><title>Batchfile: 1.2%</title></circle><text x="34.0" y="265" text-anchor="middle" font-size="11" fill="#7d8590">JavaScript</text><text x="77.6" y="265" text-anchor="middle" font-size="11" fill="#7d8590">Java</text><text x="121.1" y="265" text-anchor="middle" font-size="11" fill="#7d8590">JSON</text><text x="164.7" y="265" text-anchor="middle" font-size="11" fill="#7d8590">CSS</text><text x="208.2" y="265" text-anchor="middle" font-size="11" fill="#7d8590">Shell</text><text x="251.8" y="265" text-anchor="middle" font-size="11" fill="#7d8590">Markdown</text><text x="295.3" y="265" text-anchor="middle" font-size="11" fill="#7d8590">HTML</text><text x="338.9" y="265" text-anchor="middle" font-size="11" fill="#7d8590">PowerShell</text><text x="382.4" y="265" text-anchor="middle" font-size="11" fill="#7d8590">Swift</text><text x="426.0" y="265" text-anchor="middle" font-size="11" fill="#7d8590">Batchfile</text></svg>