<svg xmlns="http://www.w3.org/2000/svg" viewBox="0 0 460 290" width="460" height="290" font-family="-apple-system,BlinkMacSystemFont,'Segoe UI',Helvetica,Arial,sans-serif"><rect width="460" height="290" rx="14" fill="#161b22"/><path d="M132.00 41.00 A104 104 0 1 1 51.09 79.66 L88.43 109.82 A56 56 0 1 0 132.00 89.00 Z" fill="#b07219"><title>Java: 85.8% (86%)</title></path><path d="M51.09 79.66 A104 104 0 0 1 78.80 55.64 L103.35 96.88 A56 56 0 0 0 88.43 109.82 Z" fill="#f1e05a"><title>JavaScript: 5.6% (6%)</title></path><path d="M78.80 55.64 A104 104 0 0 1 91.87 49.05 L110.39 93.34 A56 56 0 0 0 103.35 96.88 Z" fill="#292929"><title>JSON: 2.2% (2%)</title></path><path d="M91.87 49.05 A104 104 0 0 1 101.47 45.58 L115.56 91.47 A56 56 0 0 0 110.39 93.34 Z" fill="#E22837"><title>mcfunction: 1.6% (2%)</title></path><path d="M101.47 45.58 A104 104 0 0 1 109.26 43.52 L119.76 90.35 A56 56 0 0 0 115.56 91.47 Z" fill="#563d7c"><title>CSS: 1.2% (1%)</title></path><path d="M109.26 43.52 A104 104 0 0 1 116.01 42.24 L123.39 89.67 A56 56 0 0 0 119.76 90.35 Z" fill="#083fa1"><title>Markdown: 1.1% (1%)</title></path><path d="M116.01 42.24 A104 104 0 0 1 132.00 41.00 L132.00 89.00 A56 56 0 0 0 123.39 89.67 Z" fill="#8b949e"><title>Other: 2.5% (2%)</title></path><rect x="272" y="21" width="11" height="11" rx="2.5" fill="#b07219"/><text x="290" y="30" font-size="12" fill="#e6edf3">Java</text><text x="444" y="30" text-anchor="end" font-size="11" font-family="monospace" fill="#7d8590">86%</text><rect x="272" y="49" width="11" height="11" rx="2.5" fill="#f1e05a"/><text x="290" y="58" font-size="12" fill="#e6edf3">JavaScript</text><text x="444" y="58" text-anchor="end" font-size="11" font-family="monospace" fill="#7d8590">6%</text><rect x="272" y="77" width="11" height="11" rx="2.5" fill="#292929"/><text x="290" y="86" font-size="12" fill="#e6edf3">JSON</text><text x="444" y="86" text-anchor="end" font-size="11" font-family="monospace" fill="#7d8590">2%</text><rect x="272" y="105" width="11" height="11" rx="2.5" fill="#E22837"/><text x="290" y="114" font-size="12" fill="#e6edf3">mcfunction</text><text x="444" y="114" text-anchor="end" font-size="11" font-family="monospace" fill="#7d8590">2%</text><rect x="272" y="133" width="11" height="11" rx="2.5" fill="#563d7c"/><text x="290" y="142" font-size="12" fill="#e6edf3">CSS</text><text x="444" y="142" text-anchor="end" font-size="11" font-family="monospace" fill="#7d8590">1%</text><rect x="272" y="161" width="11" height="11" rx="2.5" fill="#083fa1"/><text x="290" y="170" font-size="12" fill="#e6edf3">Markdown</text><text x="444" y="170" text-anchor="end" font-size="11" font-family="monospace" fill="#7d8590">1%</text><rect x="272" y="189" width="11" height="11" rx="2.5" fill="#8b949e"/><text x="290" y="198" font-size="12" fill="#e6edf3">Other</text><text x="444" y="198" text-anchor="end" font-size="11" font-family="monospace" fill="#7d8590">2%</text></svg>