<svg xmlns="http://www.w3.org/2000/svg" viewBox="0 0 460 290" width="460" height="290" font-family="-apple-system,BlinkMacSystemFont,'Segoe UI',Helvetica,Arial,sans-serif"><rect width="460" height="290" rx="14" fill="#161b22"/><line x1="18" y1="242" x2="442" y2="242" stroke="#30363d"/><rect x="25.3" y="34.0" width="23.9" height="208.0" rx="3" fill="#b07219"><title>Java: 44.4%</title></rect><text x="37.3" y="27.0" text-anchor="middle" font-size="11" font-family="monospace" fill="#e6edf3">44.4%</text><text x="37.3" y="261" text-anchor="middle" font-size="11" fill="#7d8590">Java</text><rect x="63.9" y="84.1" width="23.9" height="157.9" rx="3" fill="#f1e05a"><title>JavaScript: 33.7%</title></rect><text x="75.8" y="77.1" text-anchor="middle" font-size="11" font-family="monospace" fill="#e6edf3">33.7%</text><text x="75.8" y="261" text-anchor="middle" font-size="11" fill="#7d8590">JavaScript</text><rect x="102.4" y="218.8" width="23.9" height="23.2" rx="3" fill="#89e051"><title>Shell: 5.0%</title></rect><text x="114.4" y="211.8" text-anchor="middle" font-size="11" font-family="monospace" fill="#e6edf3">5.0%</text><text x="114.4" y="261" text-anchor="middle" font-size="11" fill="#7d8590">Shell</text><rect x="141.0" y="222.1" width="23.9" height="19.9" rx="3" fill="#292929"><title>JSON: 4.3%</title></rect><text x="152.9" y="215.1" text-anchor="middle" font-size="11" font-family="monospace" fill="#e6edf3">4.3%</text><text x="152.9" y="261" text-anchor="middle" font-size="11" fill="#7d8590">JSON</text><rect x="179.5" y="223.4" width="23.9" height="18.6" rx="3" fill="#563d7c"><title>CSS: 4.0%</title></rect><text x="191.5" y="216.4" text-anchor="middle" font-size="11" font-family="monospace" fill="#e6edf3">4.0%</text><text x="191.5" y="261" text-anchor="middle" font-size="11" fill="#7d8590">CSS</text><rect x="218.1" y="231.5" width="23.9" height="10.5" rx="3" fill="#083fa1"><title>Markdown: 2.2%</title></rect><text x="230.0" y="224.5" text-anchor="middle" font-size="11" font-family="monospace" fill="#e6edf3">2.2%</text><text x="230.0" y="261" text-anchor="middle" font-size="11" fill="#7d8590">Markdown</text><rect x="256.6" y="232.9" width="23.9" height="9.1" rx="3" fill="#C1F12E"><title>Batchfile: 1.9%</title></rect><text x="268.5" y="225.9" text-anchor="middle" font-size="11" font-family="monospace" fill="#e6edf3">1.9%</text><text x="268.5" y="261" text-anchor="middle" font-size="11" fill="#7d8590">Batchfile</text><rect x="295.1" y="234.2" width="23.9" height="7.8" rx="3" fill="#F05138"><title>Swift: 1.7%</title></rect><text x="307.1" y="227.2" text-anchor="middle" font-size="11" font-family="monospace" fill="#e6edf3">1.7%</text><text x="307.1" y="261" text-anchor="middle" font-size="11" fill="#7d8590">Swift</text><rect x="333.7" y="235.7" width="23.9" height="6.3" rx="3" fill="#e34c26"><title>HTML: 1.4%</title></rect><text x="345.6" y="228.7" text-anchor="middle" font-size="11" font-family="monospace" fill="#e6edf3">1.4%</text><text x="345.6" y="261" text-anchor="middle" font-size="11" fill="#7d8590">HTML</text><rect x="372.2" y="237.2" width="23.9" height="4.8" rx="3" fill="#8b949e"><title>PowerShell: 1.0%</title></rect><text x="384.2" y="230.2" text-anchor="middle" font-size="11" font-family="monospace" fill="#e6edf3">1.0%</text><text x="384.2" y="261" text-anchor="middle" font-size="11" fill="#7d8590">PowerShell</text><rect x="410.8" y="239.0" width="23.9" height="3.0" rx="3" fill="#8b949e"><title>Other: 0.5%</title></rect><text x="422.7" y="232.0" text-anchor="middle" font-size="11" font-family="monospace" fill="#e6edf3">0.5%</text><text x="422.7" y="261" text-anchor="middle" font-size="11" fill="#7d8590">Other</text></svg>