<svg xmlns="http://www.w3.org/2000/svg" viewBox="0 0 460 208" width="460" height="208" font-family="-apple-system,BlinkMacSystemFont,'Segoe UI',Helvetica,Arial,sans-serif"><rect width="460" height="208" rx="14" fill="#161b22"/><text x="112" y="33" text-anchor="end" font-size="12" fill="#e6edf3">Java</text><rect x="124" y="23" width="262" height="12" rx="6" fill="rgba(255,255,255,0.06)"/><rect x="124" y="23" width="262.0" height="12" rx="6" fill="#b07219"><title>Java: 88.3%</title></rect><text x="396" y="33" font-size="11" font-family="monospace" fill="#7d8590">88.3%</text><text x="112" y="63" text-anchor="end" font-size="12" fill="#e6edf3">JavaScript</text><rect x="124" y="53" width="262" height="12" rx="6" fill="rgba(255,255,255,0.06)"/><rect x="124" y="53" width="10.5" height="12" rx="6" fill="#f1e05a"><title>JavaScript: 3.6%</title></rect><text x="396" y="63" font-size="11" font-family="monospace" fill="#7d8590">3.6%</text><text x="112" y="93" text-anchor="end" font-size="12" fill="#e6edf3">JSON</text><rect x="124" y="83" width="262" height="12" rx="6" fill="rgba(255,255,255,0.06)"/><rect x="124" y="83" width="6.8" height="12" rx="6" fill="#292929"><title>JSON: 2.3%</title></rect><text x="396" y="93" font-size="11" font-family="monospace" fill="#7d8590">2.3%</text><text x="112" y="123" text-anchor="end" font-size="12" fill="#e6edf3">mcfunction</text><rect x="124" y="113" width="262" height="12" rx="6" fill="rgba(255,255,255,0.06)"/><rect x="124" y="113" width="4.8" height="12" rx="6" fill="#E22837"><title>mcfunction: 1.6%</title></rect><text x="396" y="123" font-size="11" font-family="monospace" fill="#7d8590">1.6%</text><text x="112" y="153" text-anchor="end" font-size="12" fill="#e6edf3">Markdown</text><rect x="124" y="143" width="262" height="12" rx="6" fill="rgba(255,255,255,0.06)"/><rect x="124" y="143" width="3.1" height="12" rx="6" fill="#083fa1"><title>Markdown: 1.1%</title></rect><text x="396" y="153" font-size="11" font-family="monospace" fill="#7d8590">1.1%</text><text x="112" y="183" text-anchor="end" font-size="12" fill="#e6edf3">Other</text><rect x="124" y="173" width="262" height="12" rx="6" fill="rgba(255,255,255,0.06)"/><rect x="124" y="173" width="9.5" height="12" rx="6" fill="#8b949e"><title>Other: 3.2%</title></rect><text x="396" y="183" font-size="11" font-family="monospace" fill="#7d8590">3.2%</text></svg>