<svg xmlns="http://www.w3.org/2000/svg" viewBox="0 0 460 290" width="460" height="290" font-family="-apple-system,BlinkMacSystemFont,'Segoe UI',Helvetica,Arial,sans-serif"><rect width="460" height="290" rx="14" fill="#161b22"/><path d="M132.00 41.00 A104 104 0 1 1 68.31 62.78 L97.71 100.73 A56 56 0 1 0 132.00 89.00 Z" fill="#b07219"><title>Java: 89.5% (90%)</title></path><path d="M68.31 62.78 A104 104 0 0 1 83.08 53.22 L105.66 95.58 A56 56 0 0 0 97.71 100.73 Z" fill="#f1e05a"><title>JavaScript: 2.7% (3%)</title></path><path d="M83.08 53.22 A104 104 0 0 1 97.07 47.04 L113.19 92.25 A56 56 0 0 0 105.66 95.58 Z" fill="#292929"><title>JSON: 2.3% (2%)</title></path><path d="M97.07 47.04 A104 104 0 0 1 107.44 43.94 L118.77 90.58 A56 56 0 0 0 113.19 92.25 Z" fill="#E22837"><title>mcfunction: 1.7% (2%)</title></path><path d="M107.44 43.94 A104 104 0 0 1 113.86 42.59 L122.23 89.86 A56 56 0 0 0 118.77 90.58 Z" fill="#083fa1"><title>Markdown: 1.0% (1%)</title></path><path d="M113.86 42.59 A104 104 0 0 1 132.00 41.00 L132.00 89.00 A56 56 0 0 0 122.23 89.86 Z" fill="#8b949e"><title>Other: 2.8% (3%)</title></path><rect x="272" y="21" width="11" height="11" rx="2.5" fill="#b07219"/><text x="290" y="30" font-size="12" fill="#e6edf3">Java</text><text x="444" y="30" text-anchor="end" font-size="11" font-family="monospace" fill="#7d8590">90%</text><rect x="272" y="49" width="11" height="11" rx="2.5" fill="#f1e05a"/><text x="290" y="58" font-size="12" fill="#e6edf3">JavaScript</text><text x="444" y="58" text-anchor="end" font-size="11" font-family="monospace" fill="#7d8590">3%</text><rect x="272" y="77" width="11" height="11" rx="2.5" fill="#292929"/><text x="290" y="86" font-size="12" fill="#e6edf3">JSON</text><text x="444" y="86" text-anchor="end" font-size="11" font-family="monospace" fill="#7d8590">2%</text><rect x="272" y="105" width="11" height="11" rx="2.5" fill="#E22837"/><text x="290" y="114" font-size="12" fill="#e6edf3">mcfunction</text><text x="444" y="114" text-anchor="end" font-size="11" font-family="monospace" fill="#7d8590">2%</text><rect x="272" y="133" width="11" height="11" rx="2.5" fill="#083fa1"/><text x="290" y="142" font-size="12" fill="#e6edf3">Markdown</text><text x="444" y="142" text-anchor="end" font-size="11" font-family="monospace" fill="#7d8590">1%</text><rect x="272" y="161" width="11" height="11" rx="2.5" fill="#8b949e"/><text x="290" y="170" font-size="12" fill="#e6edf3">Other</text><text x="444" y="170" text-anchor="end" font-size="11" font-family="monospace" fill="#7d8590">3%</text></svg>