<svg xmlns="http://www.w3.org/2000/svg" viewBox="0 0 460 290" width="460" height="290" font-family="-apple-system,BlinkMacSystemFont,'Segoe UI',Helvetica,Arial,sans-serif"><rect width="460" height="290" rx="14" fill="#161b22"/><path d="M132.00 41.00 A104 104 0 1 1 43.63 90.16 L84.42 115.47 A56 56 0 1 0 132.00 89.00 Z" fill="#b07219"><title>Java: 83.8% (84%)</title></path><path d="M43.63 90.16 A104 104 0 0 1 76.32 57.16 L102.02 97.70 A56 56 0 0 0 84.42 115.47 Z" fill="#f1e05a"><title>JavaScript: 7.2% (7%)</title></path><path d="M76.32 57.16 A104 104 0 0 1 89.39 50.13 L109.06 93.92 A56 56 0 0 0 102.02 97.70 Z" fill="#292929"><title>JSON: 2.3% (2%)</title></path><path d="M89.39 50.13 A104 104 0 0 1 99.21 46.30 L114.34 91.86 A56 56 0 0 0 109.06 93.92 Z" fill="#563d7c"><title>CSS: 1.6% (2%)</title></path><path d="M99.21 46.30 A104 104 0 0 1 109.06 43.56 L119.65 90.38 A56 56 0 0 0 114.34 91.86 Z" fill="#E22837"><title>mcfunction: 1.6% (2%)</title></path><path d="M109.06 43.56 A104 104 0 0 1 115.85 42.26 L123.30 89.68 A56 56 0 0 0 119.65 90.38 Z" fill="#083fa1"><title>Markdown: 1.1% (1%)</title></path><path d="M115.85 42.26 A104 104 0 0 1 132.00 41.00 L132.00 89.00 A56 56 0 0 0 123.30 89.68 Z" fill="#8b949e"><title>Other: 2.5% (2%)</title></path><rect x="272" y="21" width="11" height="11" rx="2.5" fill="#b07219"/><text x="290" y="30" font-size="12" fill="#e6edf3">Java</text><text x="444" y="30" text-anchor="end" font-size="11" font-family="monospace" fill="#7d8590">84%</text><rect x="272" y="49" width="11" height="11" rx="2.5" fill="#f1e05a"/><text x="290" y="58" font-size="12" fill="#e6edf3">JavaScript</text><text x="444" y="58" text-anchor="end" font-size="11" font-family="monospace" fill="#7d8590">7%</text><rect x="272" y="77" width="11" height="11" rx="2.5" fill="#292929"/><text x="290" y="86" font-size="12" fill="#e6edf3">JSON</text><text x="444" y="86" text-anchor="end" font-size="11" font-family="monospace" fill="#7d8590">2%</text><rect x="272" y="105" width="11" height="11" rx="2.5" fill="#563d7c"/><text x="290" y="114" font-size="12" fill="#e6edf3">CSS</text><text x="444" y="114" text-anchor="end" font-size="11" font-family="monospace" fill="#7d8590">2%</text><rect x="272" y="133" width="11" height="11" rx="2.5" fill="#E22837"/><text x="290" y="142" font-size="12" fill="#e6edf3">mcfunction</text><text x="444" y="142" text-anchor="end" font-size="11" font-family="monospace" fill="#7d8590">2%</text><rect x="272" y="161" width="11" height="11" rx="2.5" fill="#083fa1"/><text x="290" y="170" font-size="12" fill="#e6edf3">Markdown</text><text x="444" y="170" text-anchor="end" font-size="11" font-family="monospace" fill="#7d8590">1%</text><rect x="272" y="189" width="11" height="11" rx="2.5" fill="#8b949e"/><text x="290" y="198" font-size="12" fill="#e6edf3">Other</text><text x="444" y="198" text-anchor="end" font-size="11" font-family="monospace" fill="#7d8590">2%</text></svg>