<svg xmlns="http://www.w3.org/2000/svg" viewBox="0 0 460 290" width="460" height="290" font-family="-apple-system,BlinkMacSystemFont,'Segoe UI',Helvetica,Arial,sans-serif"><rect width="460" height="290" rx="14" fill="#161b22"/><path d="M132.00 41.00 A104 104 0 0 1 167.71 242.68 L151.23 197.60 A56 56 0 0 0 132.00 89.00 Z" fill="#b07219"><title>Java: 44.4% (44%)</title></path><path d="M167.71 242.68 A104 104 0 0 1 30.02 124.58 L77.09 134.01 A56 56 0 0 0 151.23 197.60 Z" fill="#f1e05a"><title>JavaScript: 33.7% (34%)</title></path><path d="M30.02 124.58 A104 104 0 0 1 41.18 94.32 L83.10 117.71 A56 56 0 0 0 77.09 134.01 Z" fill="#89e051"><title>Shell: 5.0% (5%)</title></path><path d="M41.18 94.32 A104 104 0 0 1 57.80 72.12 L92.05 105.76 A56 56 0 0 0 83.10 117.71 Z" fill="#292929"><title>JSON: 4.3% (4%)</title></path><path d="M57.80 72.12 A104 104 0 0 1 78.07 56.08 L102.96 97.12 A56 56 0 0 0 92.05 105.76 Z" fill="#563d7c"><title>CSS: 4.0% (4%)</title></path><path d="M78.07 56.08 A104 104 0 0 1 91.05 49.40 L109.95 93.52 A56 56 0 0 0 102.96 97.12 Z" fill="#083fa1"><title>Markdown: 2.2% (2%)</title></path><path d="M91.05 49.40 A104 104 0 0 1 102.98 45.13 L116.37 91.22 A56 56 0 0 0 109.95 93.52 Z" fill="#C1F12E"><title>Batchfile: 1.9% (2%)</title></path><path d="M102.98 45.13 A104 104 0 0 1 113.63 42.64 L122.11 89.88 A56 56 0 0 0 116.37 91.22 Z" fill="#F05138"><title>Swift: 1.7% (2%)</title></path><path d="M113.63 42.64 A104 104 0 0 1 122.40 41.44 L126.83 89.24 A56 56 0 0 0 122.11 89.88 Z" fill="#e34c26"><title>HTML: 1.4% (1%)</title></path><path d="M122.40 41.44 A104 104 0 0 1 129.04 41.04 L130.41 89.02 A56 56 0 0 0 126.83 89.24 Z" fill="#8b949e"><title>PowerShell: 1.0% (1%)</title></path><path d="M129.04 41.04 A104 104 0 0 1 132.00 41.00 L132.00 89.00 A56 56 0 0 0 130.41 89.02 Z" fill="#8b949e"><title>Other: 0.5% (0%)</title></path><rect x="272" y="21" width="11" height="11" rx="2.5" fill="#b07219"/><text x="290" y="30" font-size="12" fill="#e6edf3">Java</text><text x="444" y="30" text-anchor="end" font-size="11" font-family="monospace" fill="#7d8590">44%</text><rect x="272" y="43.72727272727273" width="11" height="11" rx="2.5" fill="#f1e05a"/><text x="290" y="52.72727272727273" font-size="12" fill="#e6edf3">JavaScript</text><text x="444" y="52.72727272727273" text-anchor="end" font-size="11" font-family="monospace" fill="#7d8590">34%</text><rect x="272" y="66.45454545454545" width="11" height="11" rx="2.5" fill="#89e051"/><text x="290" y="75.45454545454545" font-size="12" fill="#e6edf3">Shell</text><text x="444" y="75.45454545454545" text-anchor="end" font-size="11" font-family="monospace" fill="#7d8590">5%</text><rect x="272" y="89.18181818181819" width="11" height="11" rx="2.5" fill="#292929"/><text x="290" y="98.18181818181819" font-size="12" fill="#e6edf3">JSON</text><text x="444" y="98.18181818181819" text-anchor="end" font-size="11" font-family="monospace" fill="#7d8590">4%</text><rect x="272" y="111.9090909090909" width="11" height="11" rx="2.5" fill="#563d7c"/><text x="290" y="120.9090909090909" font-size="12" fill="#e6edf3">CSS</text><text x="444" y="120.9090909090909" text-anchor="end" font-size="11" font-family="monospace" fill="#7d8590">4%</text><rect x="272" y="134.63636363636363" width="11" height="11" rx="2.5" fill="#083fa1"/><text x="290" y="143.63636363636363" font-size="12" fill="#e6edf3">Markdown</text><text x="444" y="143.63636363636363" text-anchor="end" font-size="11" font-family="monospace" fill="#7d8590">2%</text><rect x="272" y="157.36363636363637" width="11" height="11" rx="2.5" fill="#C1F12E"/><text x="290" y="166.36363636363637" font-size="12" fill="#e6edf3">Batchfile</text><text x="444" y="166.36363636363637" text-anchor="end" font-size="11" font-family="monospace" fill="#7d8590">2%</text><rect x="272" y="180.0909090909091" width="11" height="11" rx="2.5" fill="#F05138"/><text x="290" y="189.0909090909091" font-size="12" fill="#e6edf3">Swift</text><text x="444" y="189.0909090909091" text-anchor="end" font-size="11" font-family="monospace" fill="#7d8590">2%</text><rect x="272" y="202.8181818181818" width="11" height="11" rx="2.5" fill="#e34c26"/><text x="290" y="211.8181818181818" font-size="12" fill="#e6edf3">HTML</text><text x="444" y="211.8181818181818" text-anchor="end" font-size="11" font-family="monospace" fill="#7d8590">1%</text><rect x="272" y="225.54545454545453" width="11" height="11" rx="2.5" fill="#8b949e"/><text x="290" y="234.54545454545453" font-size="12" fill="#e6edf3">PowerShell</text><text x="444" y="234.54545454545453" text-anchor="end" font-size="11" font-family="monospace" fill="#7d8590">1%</text><rect x="272" y="248.27272727272725" width="11" height="11" rx="2.5" fill="#8b949e"/><text x="290" y="257.27272727272725" font-size="12" fill="#e6edf3">Other</text><text x="444" y="257.27272727272725" text-anchor="end" font-size="11" font-family="monospace" fill="#7d8590">0%</text></svg>