<svg xmlns="http://www.w3.org/2000/svg" viewBox="0 0 460 290" width="460" height="290" font-family="-apple-system,BlinkMacSystemFont,'Segoe UI',Helvetica,Arial,sans-serif"><rect width="460" height="290" rx="14" fill="#161b22"/><path d="M132.00 41.00 A104 104 0 1 1 63.40 66.83 L95.06 102.91 A56 56 0 1 0 132.00 89.00 Z" fill="#b07219"><title>Java: 88.5% (89%)</title></path><path d="M63.40 66.83 A104 104 0 0 1 82.41 53.59 L105.30 95.78 A56 56 0 0 0 95.06 102.91 Z" fill="#f1e05a"><title>JavaScript: 3.6% (4%)</title></path><path d="M82.41 53.59 A104 104 0 0 1 96.17 47.37 L112.71 92.43 A56 56 0 0 0 105.30 95.78 Z" fill="#292929"><title>JSON: 2.3% (2%)</title></path><path d="M96.17 47.37 A104 104 0 0 1 106.35 44.21 L118.19 90.73 A56 56 0 0 0 112.71 92.43 Z" fill="#E22837"><title>mcfunction: 1.6% (2%)</title></path><path d="M106.35 44.21 A104 104 0 0 1 113.13 42.73 L121.84 89.93 A56 56 0 0 0 118.19 90.73 Z" fill="#083fa1"><title>Markdown: 1.1% (1%)</title></path><path d="M113.13 42.73 A104 104 0 0 1 132.00 41.00 L132.00 89.00 A56 56 0 0 0 121.84 89.93 Z" fill="#8b949e"><title>Other: 2.9% (3%)</title></path><rect x="272" y="21" width="11" height="11" rx="2.5" fill="#b07219"/><text x="290" y="30" font-size="12" fill="#e6edf3">Java</text><text x="444" y="30" text-anchor="end" font-size="11" font-family="monospace" fill="#7d8590">89%</text><rect x="272" y="49" width="11" height="11" rx="2.5" fill="#f1e05a"/><text x="290" y="58" font-size="12" fill="#e6edf3">JavaScript</text><text x="444" y="58" text-anchor="end" font-size="11" font-family="monospace" fill="#7d8590">4%</text><rect x="272" y="77" width="11" height="11" rx="2.5" fill="#292929"/><text x="290" y="86" font-size="12" fill="#e6edf3">JSON</text><text x="444" y="86" text-anchor="end" font-size="11" font-family="monospace" fill="#7d8590">2%</text><rect x="272" y="105" width="11" height="11" rx="2.5" fill="#E22837"/><text x="290" y="114" font-size="12" fill="#e6edf3">mcfunction</text><text x="444" y="114" text-anchor="end" font-size="11" font-family="monospace" fill="#7d8590">2%</text><rect x="272" y="133" width="11" height="11" rx="2.5" fill="#083fa1"/><text x="290" y="142" font-size="12" fill="#e6edf3">Markdown</text><text x="444" y="142" text-anchor="end" font-size="11" font-family="monospace" fill="#7d8590">1%</text><rect x="272" y="161" width="11" height="11" rx="2.5" fill="#8b949e"/><text x="290" y="170" font-size="12" fill="#e6edf3">Other</text><text x="444" y="170" text-anchor="end" font-size="11" font-family="monospace" fill="#7d8590">3%</text></svg>