<svg xmlns="http://www.w3.org/2000/svg" viewBox="0 0 460 290" width="460" height="290" font-family="-apple-system,BlinkMacSystemFont,'Segoe UI',Helvetica,Arial,sans-serif"><rect width="460" height="290" rx="14" fill="#161b22"/><path d="M132.00 41.00 A104 104 0 1 1 28.68 156.87 L76.37 151.39 A56 56 0 1 0 132.00 89.00 Z" fill="#b07219"><title>Java: 73.2% (73%)</title></path><path d="M28.68 156.87 A104 104 0 0 1 54.15 76.04 L90.08 107.87 A56 56 0 0 0 76.37 151.39 Z" fill="#f1e05a"><title>JavaScript: 13.4% (13%)</title></path><path d="M54.15 76.04 A104 104 0 0 1 66.19 64.47 L96.57 101.64 A56 56 0 0 0 90.08 107.87 Z" fill="#292929"><title>JSON: 2.6% (3%)</title></path><path d="M66.19 64.47 A104 104 0 0 1 77.49 56.43 L102.65 97.31 A56 56 0 0 0 96.57 101.64 Z" fill="#F05138"><title>Swift: 2.1% (2%)</title></path><path d="M77.49 56.43 A104 104 0 0 1 89.54 50.06 L109.14 93.88 A56 56 0 0 0 102.65 97.31 Z" fill="#563d7c"><title>CSS: 2.1% (2%)</title></path><path d="M89.54 50.06 A104 104 0 0 1 100.00 46.05 L114.77 91.72 A56 56 0 0 0 109.14 93.88 Z" fill="#E22837"><title>mcfunction: 1.7% (2%)</title></path><path d="M100.00 46.05 A104 104 0 0 1 110.12 43.33 L120.22 90.25 A56 56 0 0 0 114.77 91.72 Z" fill="#083fa1"><title>Markdown: 1.6% (2%)</title></path><path d="M110.12 43.33 A104 104 0 0 1 132.00 41.00 L132.00 89.00 A56 56 0 0 0 120.22 90.25 Z" fill="#8b949e"><title>Other: 3.4% (3%)</title></path><rect x="272" y="21" width="11" height="11" rx="2.5" fill="#b07219"/><text x="290" y="30" font-size="12" fill="#e6edf3">Java</text><text x="444" y="30" text-anchor="end" font-size="11" font-family="monospace" fill="#7d8590">73%</text><rect x="272" y="49" width="11" height="11" rx="2.5" fill="#f1e05a"/><text x="290" y="58" font-size="12" fill="#e6edf3">JavaScript</text><text x="444" y="58" text-anchor="end" font-size="11" font-family="monospace" fill="#7d8590">13%</text><rect x="272" y="77" width="11" height="11" rx="2.5" fill="#292929"/><text x="290" y="86" font-size="12" fill="#e6edf3">JSON</text><text x="444" y="86" text-anchor="end" font-size="11" font-family="monospace" fill="#7d8590">3%</text><rect x="272" y="105" width="11" height="11" rx="2.5" fill="#F05138"/><text x="290" y="114" font-size="12" fill="#e6edf3">Swift</text><text x="444" y="114" text-anchor="end" font-size="11" font-family="monospace" fill="#7d8590">2%</text><rect x="272" y="133" width="11" height="11" rx="2.5" fill="#563d7c"/><text x="290" y="142" font-size="12" fill="#e6edf3">CSS</text><text x="444" y="142" text-anchor="end" font-size="11" font-family="monospace" fill="#7d8590">2%</text><rect x="272" y="161" width="11" height="11" rx="2.5" fill="#E22837"/><text x="290" y="170" font-size="12" fill="#e6edf3">mcfunction</text><text x="444" y="170" text-anchor="end" font-size="11" font-family="monospace" fill="#7d8590">2%</text><rect x="272" y="189" width="11" height="11" rx="2.5" fill="#083fa1"/><text x="290" y="198" font-size="12" fill="#e6edf3">Markdown</text><text x="444" y="198" text-anchor="end" font-size="11" font-family="monospace" fill="#7d8590">2%</text><rect x="272" y="217" width="11" height="11" rx="2.5" fill="#8b949e"/><text x="290" y="226" font-size="12" fill="#e6edf3">Other</text><text x="444" y="226" text-anchor="end" font-size="11" font-family="monospace" fill="#7d8590">3%</text></svg>