<svg xmlns="http://www.w3.org/2000/svg" viewBox="0 0 460 290" width="460" height="290" font-family="-apple-system,BlinkMacSystemFont,'Segoe UI',Helvetica,Arial,sans-serif"><rect width="460" height="290" rx="14" fill="#161b22"/><path d="M132.00 41.00 A104 104 0 1 1 57.23 72.71 L91.74 106.08 A56 56 0 1 0 132.00 89.00 Z" fill="#b07219"><title>Java: 87.2% (87%)</title></path><path d="M57.23 72.71 A104 104 0 0 1 79.67 55.12 L103.82 96.61 A56 56 0 0 0 91.74 106.08 Z" fill="#f1e05a"><title>JavaScript: 4.4% (4%)</title></path><path d="M79.67 55.12 A104 104 0 0 1 93.03 48.58 L111.02 93.08 A56 56 0 0 0 103.82 96.61 Z" fill="#292929"><title>JSON: 2.3% (2%)</title></path><path d="M93.03 48.58 A104 104 0 0 1 102.83 45.18 L116.29 91.25 A56 56 0 0 0 111.02 93.08 Z" fill="#E22837"><title>mcfunction: 1.6% (2%)</title></path><path d="M102.83 45.18 A104 104 0 0 1 109.59 43.44 L119.93 90.32 A56 56 0 0 0 116.29 91.25 Z" fill="#083fa1"><title>Markdown: 1.1% (1%)</title></path><path d="M109.59 43.44 A104 104 0 0 1 116.22 42.20 L123.50 89.65 A56 56 0 0 0 119.93 90.32 Z" fill="#563d7c"><title>CSS: 1.0% (1%)</title></path><path d="M116.22 42.20 A104 104 0 0 1 132.00 41.00 L132.00 89.00 A56 56 0 0 0 123.50 89.65 Z" fill="#8b949e"><title>Other: 2.4% (2%)</title></path><rect x="272" y="21" width="11" height="11" rx="2.5" fill="#b07219"/><text x="290" y="30" font-size="12" fill="#e6edf3">Java</text><text x="444" y="30" text-anchor="end" font-size="11" font-family="monospace" fill="#7d8590">87%</text><rect x="272" y="49" width="11" height="11" rx="2.5" fill="#f1e05a"/><text x="290" y="58" font-size="12" fill="#e6edf3">JavaScript</text><text x="444" y="58" text-anchor="end" font-size="11" font-family="monospace" fill="#7d8590">4%</text><rect x="272" y="77" width="11" height="11" rx="2.5" fill="#292929"/><text x="290" y="86" font-size="12" fill="#e6edf3">JSON</text><text x="444" y="86" text-anchor="end" font-size="11" font-family="monospace" fill="#7d8590">2%</text><rect x="272" y="105" width="11" height="11" rx="2.5" fill="#E22837"/><text x="290" y="114" font-size="12" fill="#e6edf3">mcfunction</text><text x="444" y="114" text-anchor="end" font-size="11" font-family="monospace" fill="#7d8590">2%</text><rect x="272" y="133" width="11" height="11" rx="2.5" fill="#083fa1"/><text x="290" y="142" font-size="12" fill="#e6edf3">Markdown</text><text x="444" y="142" text-anchor="end" font-size="11" font-family="monospace" fill="#7d8590">1%</text><rect x="272" y="161" width="11" height="11" rx="2.5" fill="#563d7c"/><text x="290" y="170" font-size="12" fill="#e6edf3">CSS</text><text x="444" y="170" text-anchor="end" font-size="11" font-family="monospace" fill="#7d8590">1%</text><rect x="272" y="189" width="11" height="11" rx="2.5" fill="#8b949e"/><text x="290" y="198" font-size="12" fill="#e6edf3">Other</text><text x="444" y="198" text-anchor="end" font-size="11" font-family="monospace" fill="#7d8590">2%</text></svg>