<svg xmlns="http://www.w3.org/2000/svg" viewBox="0 0 64 64">
  <rect width="64" height="64" rx="12" fill="#0d0d0f"/>

  <!--
    ワスレグサ (Hemerocallis) ドット画
    16x16 グリッド、1px = 4x4
  -->

  <!-- 花びら 外縁 (dark orange #c04010) -->
  <rect x="20" y="4"  width="4" height="4" fill="#c04010"/>
  <rect x="40" y="4"  width="4" height="4" fill="#c04010"/>
  <rect x="16" y="8"  width="4" height="4" fill="#c04010"/>
  <rect x="24" y="8"  width="4" height="4" fill="#c04010"/>
  <rect x="36" y="8"  width="4" height="4" fill="#c04010"/>
  <rect x="44" y="8"  width="4" height="4" fill="#c04010"/>
  <rect x="12" y="12" width="4" height="4" fill="#c04010"/>
  <rect x="48" y="12" width="4" height="4" fill="#c04010"/>
  <rect x="12" y="16" width="4" height="4" fill="#c04010"/>
  <rect x="28" y="16" width="8" height="4" fill="#c04010"/>
  <rect x="48" y="16" width="4" height="4" fill="#c04010"/>
  <rect x="8"  y="20" width="4" height="4" fill="#c04010"/>
  <rect x="52" y="20" width="4" height="4" fill="#c04010"/>
  <rect x="8"  y="24" width="4" height="4" fill="#c04010"/>
  <rect x="52" y="24" width="4" height="4" fill="#c04010"/>
  <rect x="8"  y="28" width="4" height="4" fill="#c04010"/>
  <rect x="52" y="28" width="4" height="4" fill="#c04010"/>
  <rect x="8"  y="32" width="4" height="4" fill="#c04010"/>
  <rect x="52" y="32" width="4" height="4" fill="#c04010"/>
  <rect x="12" y="36" width="4" height="4" fill="#c04010"/>
  <rect x="48" y="36" width="4" height="4" fill="#c04010"/>
  <rect x="12" y="40" width="4" height="4" fill="#c04010"/>
  <rect x="48" y="40" width="4" height="4" fill="#c04010"/>
  <rect x="16" y="44" width="4" height="4" fill="#c04010"/>
  <rect x="44" y="44" width="4" height="4" fill="#c04010"/>

  <!-- 花びら メイン (orange #e87030) -->
  <rect x="20" y="8"  width="4" height="4" fill="#e87030"/>
  <rect x="40" y="8"  width="4" height="4" fill="#e87030"/>
  <rect x="16" y="12" width="12" height="4" fill="#e87030"/>
  <rect x="36" y="12" width="12" height="4" fill="#e87030"/>
  <rect x="16" y="16" width="8" height="4" fill="#e87030"/>
  <rect x="40" y="16" width="8" height="4" fill="#e87030"/>
  <rect x="12" y="20" width="8" height="4" fill="#e87030"/>
  <rect x="44" y="20" width="8" height="4" fill="#e87030"/>
  <rect x="12" y="24" width="4" height="4" fill="#e87030"/>
  <rect x="48" y="24" width="4" height="4" fill="#e87030"/>
  <rect x="12" y="28" width="4" height="4" fill="#e87030"/>
  <rect x="48" y="28" width="4" height="4" fill="#e87030"/>
  <rect x="12" y="32" width="4" height="4" fill="#e87030"/>
  <rect x="48" y="32" width="4" height="4" fill="#e87030"/>
  <rect x="16" y="36" width="4" height="4" fill="#e87030"/>
  <rect x="44" y="36" width="4" height="4" fill="#e87030"/>
  <rect x="16" y="40" width="8" height="4" fill="#e87030"/>
  <rect x="40" y="40" width="8" height="4" fill="#e87030"/>
  <rect x="20" y="44" width="24" height="4" fill="#e87030"/>

  <!-- 花びら 内側 (light orange #f0a060) -->
  <rect x="24" y="16" width="4" height="4" fill="#f0a060"/>
  <rect x="36" y="16" width="4" height="4" fill="#f0a060"/>
  <rect x="20" y="20" width="8" height="4" fill="#f0a060"/>
  <rect x="36" y="20" width="8" height="4" fill="#f0a060"/>
  <rect x="16" y="24" width="8" height="4" fill="#f0a060"/>
  <rect x="40" y="24" width="8" height="4" fill="#f0a060"/>
  <rect x="16" y="28" width="4" height="4" fill="#f0a060"/>
  <rect x="44" y="28" width="4" height="4" fill="#f0a060"/>
  <rect x="16" y="32" width="4" height="4" fill="#f0a060"/>
  <rect x="44" y="32" width="4" height="4" fill="#f0a060"/>
  <rect x="20" y="36" width="8" height="4" fill="#f0a060"/>
  <rect x="36" y="36" width="8" height="4" fill="#f0a060"/>
  <rect x="24" y="40" width="16" height="4" fill="#f0a060"/>

  <!-- 中心 黄色 (yellow #f8c030) -->
  <rect x="28" y="20" width="8" height="4" fill="#f8c030"/>
  <rect x="24" y="24" width="16" height="4" fill="#f8c030"/>
  <rect x="20" y="28" width="8" height="4" fill="#f8c030"/>
  <rect x="36" y="28" width="8" height="4" fill="#f8c030"/>
  <rect x="20" y="32" width="8" height="4" fill="#f8c030"/>
  <rect x="36" y="32" width="8" height="4" fill="#f8c030"/>
  <rect x="28" y="36" width="8" height="4" fill="#f8c030"/>

  <!-- 雄しべ (bright yellow #fce040) -->
  <rect x="28" y="28" width="8" height="8" fill="#fce040"/>

  <!-- 茎 (dark green #2a5018) -->
  <rect x="28" y="48" width="8" height="16" fill="#2a5018"/>

  <!-- 葉 左 (green #508030) -->
  <rect x="16" y="56" width="4" height="4" fill="#508030"/>
  <rect x="12" y="60" width="8" height="4" fill="#508030"/>
  <rect x="20" y="60" width="4" height="4" fill="#6aaa40"/>

  <!-- 葉 右 (green #508030) -->
  <rect x="44" y="56" width="4" height="4" fill="#508030"/>
  <rect x="44" y="60" width="8" height="4" fill="#508030"/>
  <rect x="40" y="60" width="4" height="4" fill="#6aaa40"/>
</svg>
