<?xml version="1.0" encoding="UTF-8"?>
<svg id="Layer_2" xmlns="http://www.w3.org/2000/svg" version="1.1" viewBox="0 0 512 512">
  <!-- Generator: Adobe Illustrator 30.3.0, SVG Export Plug-In . SVG Version: 2.1.3 Build 182)  -->
  <path d="M365.39,332.82S18.78,273.39,13.09,272.42s-5.52-6.11,0-7.06,352.3-60.82,352.3-60.82v128.28Z"/>
  <path d="M449.8,355.06h-43.61v-24.79h43.61c9.24,0,16.8-2.71,21.86-7.85,4.31-4.37,6.68-10.32,6.68-16.74,0-12.24-8.82-24.6-28.53-24.6h-120.99v-24.79h120.99c35,0,53.32,24.85,53.32,49.39,0,12.96-4.9,25.08-13.79,34.12-6.85,6.96-19.26,15.27-39.53,15.27Z"/>
  <path d="M367.21,356.55c-5.27-1.51-182.42-51.33-184.68-27.66-.95,9.98,2.85,15.21,38.98,25.19h-99.83c-16.65,0-16.64,22.34,0,22.34h107.91v7.61l-8.08,1.15h-99.83c-16.65,0-16.64,22.34,0,22.34h107.91l-8.08,8.75h-99.83c-16.65,0-16.64,22.34,0,22.34h107.91l-8.08,8.75h-99.83c-16.65,0-16.64,22.34,0,22.34h240.67c7.95,0,8.95-51.66-1.19-52.04-10.65-.39-19.26-.91-28.43-2.54-8.6-1.53-10.95-19.76-.32-20.45,3.38-.22,18.07-.37,28.22-.37,5.65,0,9.42-2.74,9.42-6.5v-26.88c0-2.25-.65-3.76-2.83-4.39Z"/>
  <path d="M252.78,162.28h-24.79v-23.36c0-11.64,10.39-17.33,19.56-22.35,13.64-7.47,22.58-13.3,22.58-25.88,0-5.84,0-23.61-30.51-23.61-13.92,0-30.51,6.3-30.51,36.3h-24.79c0-45.04,28.57-61.09,55.3-61.09,34.11,0,55.3,18.55,55.3,48.4,0,28.21-22.2,40.36-35.47,47.63-2.17,1.19-4.94,2.7-6.67,3.84v20.12Z"/>
  <rect x="228" y="179.04" width="24.88" height="25.94"/>
</svg>